<svg id="svg" version="1.1" xmlns="http://www.w3.org/2000/svg" xmlns:xlink="http://www.w3.org/1999/xlink" width="400" height="400" viewBox="0, 0, 400,400"><g id="svgg"><path id="path0" d="M180.029 56.631 C 175.481 62.112,173.400 72.867,175.404 80.532 C 178.120 90.917,171.523 101.680,149.524 122.758 C 116.550 154.354,109.556 191.196,130.474 223.121 C 137.959 234.544,139.097 242.563,134.465 251.220 C 128.383 262.582,132.486 263.333,200.657 263.333 C 240.629 263.333,273.333 262.386,273.333 261.228 C 273.333 260.071,270.396 253.636,266.807 246.928 C 262.083 238.102,262.955 232.514,269.964 226.697 C 298.380 203.113,284.017 140.274,243.933 112.808 C 227.353 101.447,222.948 94.251,225.239 82.268 C 230.868 52.821,198.448 34.438,180.029 56.631 M206.667 143.333 C 206.667 148.833,211.167 153.333,216.667 153.333 C 222.167 153.333,226.667 156.333,226.667 160.000 C 226.667 163.667,222.167 166.667,216.667 166.667 C 211.167 166.667,206.667 171.167,206.667 176.667 C 206.667 182.167,203.667 186.667,200.000 186.667 C 196.333 186.667,193.333 182.167,193.333 176.667 C 193.333 171.167,188.083 166.571,181.667 166.455 C 170.556 166.253,170.556 165.821,181.667 157.386 C 188.083 152.515,193.333 145.111,193.333 140.932 C 193.333 136.753,196.333 133.333,200.000 133.333 C 203.667 133.333,206.667 137.833,206.667 143.333 M246.667 233.333 C 246.667 237.143,226.667 240.000,200.000 240.000 C 173.333 240.000,153.333 237.143,153.333 233.333 C 153.333 229.524,173.333 226.667,200.000 226.667 C 226.667 226.667,246.667 229.524,246.667 233.333 M126.667 282.620 C 126.667 287.728,131.167 293.634,136.667 295.744 C 158.527 304.133,144.964 313.333,110.739 313.333 C 69.214 313.333,34.420 333.541,53.333 346.673 C 58.833 350.491,73.075 351.918,84.982 349.843 C 114.784 344.648,280.704 344.955,316.149 350.271 C 351.871 355.628,362.879 344.036,339.292 325.900 C 328.539 317.632,311.917 313.581,288.333 313.482 C 254.657 313.339,242.473 305.594,263.333 297.589 C 298.999 283.903,271.402 273.333,200.000 273.333 C 141.763 273.333,126.667 275.245,126.667 282.620 " stroke="none" fill="#000000" fill-rule="evenodd"></path></g></svg>