<svg id="svg" version="1.1" xmlns="http://www.w3.org/2000/svg" xmlns:xlink="http://www.w3.org/1999/xlink" width="400" height="400" viewBox="0, 0, 400,400"><g id="svgg"><path id="path0" d="M183.834 60.396 C 172.489 71.833,172.295 73.333,182.167 73.333 C 197.592 73.333,196.297 95.251,180.000 110.000 C 172.667 116.637,166.667 127.923,166.667 135.080 C 166.667 144.748,163.668 146.933,155.000 143.580 C 97.024 121.151,46.779 146.444,46.692 198.101 C 46.667 212.380,82.568 260.000,93.357 260.000 C 96.277 260.000,88.467 249.800,76.000 237.333 C 52.073 213.407,48.532 197.832,60.865 170.764 C 78.519 132.018,141.787 134.552,180.813 175.568 L 201.430 197.236 222.715 175.952 C 265.252 133.415,323.879 132.156,344.707 173.333 C 350.377 184.544,353.169 186.375,353.235 178.926 C 353.510 147.926,287.090 121.934,253.514 139.904 C 243.265 145.388,240.086 143.171,234.268 126.482 C 230.435 115.487,222.657 104.709,216.983 102.532 C 201.129 96.449,204.391 74.708,221.667 71.310 L 236.667 68.359 221.667 63.402 C 213.417 60.676,206.667 55.795,206.667 52.556 C 206.667 43.281,197.787 46.330,183.834 60.396 M80.000 166.667 C 51.131 195.535,91.957 261.130,129.831 246.731 C 139.568 243.029,157.839 240.000,170.434 240.000 C 213.298 240.000,195.249 189.311,144.117 166.092 C 108.931 150.113,96.441 150.225,80.000 166.667 M263.003 162.711 C 216.045 183.164,189.006 240.000,226.233 240.000 C 236.994 240.000,253.813 243.047,263.609 246.772 C 277.922 252.213,285.747 250.869,303.454 239.926 C 364.504 202.195,328.804 134.049,263.003 162.711 M346.667 208.647 C 346.667 234.482,294.566 269.147,267.793 261.125 C 213.824 244.955,100.000 256.519,100.000 278.171 C 100.000 284.920,103.731 286.629,111.667 283.516 C 157.061 265.705,250.454 267.286,286.303 286.472 C 297.743 292.594,300.002 291.841,300.011 281.901 C 300.017 275.356,312.017 258.714,326.678 244.919 C 349.328 223.607,361.585 200.000,350.000 200.000 C 348.167 200.000,346.667 203.891,346.667 208.647 M166.667 284.160 C 132.514 289.741,100.000 302.387,100.000 310.090 C 100.000 316.118,108.432 315.860,134.786 309.023 C 180.026 297.288,223.274 297.591,263.940 309.928 C 303.567 321.949,300.000 321.837,300.000 311.055 C 300.000 295.672,208.799 277.276,166.667 284.160 M156.667 316.610 C 153.000 317.833,141.750 320.653,131.667 322.877 C 87.862 332.539,131.883 353.355,195.995 353.296 C 239.199 353.257,286.667 343.056,286.667 333.811 C 286.667 320.961,184.249 307.409,156.667 316.610 " stroke="none" fill="#000000" fill-rule="evenodd"></path></g></svg>