<svg id="svg" version="1.1" xmlns="http://www.w3.org/2000/svg" xmlns:xlink="http://www.w3.org/1999/xlink" width="400" height="400" viewBox="0, 0, 400,400"><g id="svgg"><path id="path0" d="M124.210 58.012 C 121.894 60.328,120.000 71.236,120.000 82.253 C 120.000 93.270,115.808 107.020,110.685 112.808 C 73.147 155.224,42.590 245.662,61.667 257.886 C 97.294 280.714,111.245 279.128,144.516 248.468 C 209.383 188.691,222.535 203.069,166.667 272.682 C 147.175 296.970,133.333 320.954,133.333 330.442 L 133.333 346.667 226.667 346.667 L 320.000 346.667 320.000 298.067 C 320.000 205.878,290.238 132.705,243.773 110.656 C 215.527 97.252,217.727 84.244,246.542 94.289 C 299.156 112.630,331.356 179.782,338.048 285.124 C 342.781 359.625,349.203 361.315,347.253 287.546 C 344.133 169.538,302.027 97.405,227.569 82.514 C 216.073 80.215,206.667 74.385,206.667 69.560 C 206.667 52.878,192.281 51.996,175.259 67.635 C 163.372 78.555,157.258 80.774,155.171 74.924 C 151.362 64.245,129.771 52.452,124.210 58.012 M139.795 143.580 C 131.841 153.164,120.000 151.072,120.000 140.083 C 120.000 136.894,125.250 129.036,131.667 122.619 C 146.206 108.080,153.547 127.010,139.795 143.580 M93.333 223.333 C 93.333 228.833,90.510 233.333,87.060 233.333 C 78.654 233.333,72.633 222.923,77.959 217.597 C 85.467 210.089,93.333 213.024,93.333 223.333 " stroke="none" fill="#000000" fill-rule="evenodd"></path></g></svg>