<svg id="svg" version="1.1" xmlns="http://www.w3.org/2000/svg" xmlns:xlink="http://www.w3.org/1999/xlink" width="400" height="400" viewBox="0, 0, 400,400"><g id="svgg"><path id="path0" d="M183.889 75.436 C 177.294 80.259,171.439 93.009,170.878 103.769 C 170.318 114.529,164.642 130.751,158.263 139.817 C 144.664 159.147,143.544 179.185,154.695 203.659 C 161.505 218.605,161.018 222.233,151.491 227.565 C 134.654 236.988,108.552 286.240,103.388 318.333 L 98.828 346.667 206.081 346.667 L 313.333 346.667 313.187 325.000 C 312.998 297.089,293.213 254.410,270.963 233.916 C 257.797 221.790,255.281 215.686,260.738 209.111 C 272.169 195.338,270.537 155.327,257.979 141.450 C 251.757 134.575,246.667 119.651,246.667 108.285 C 246.667 72.284,212.587 54.451,183.889 75.436 " stroke="none" fill="#000000" fill-rule="evenodd"></path></g></svg>