<svg id="svg" version="1.1" xmlns="http://www.w3.org/2000/svg" xmlns:xlink="http://www.w3.org/1999/xlink" width="400" height="400" viewBox="0, 0, 400,400"><g id="svgg"><path id="path0" d="M183.551 49.016 C 172.308 57.237,171.900 60.445,179.697 79.269 C 188.924 101.545,177.178 187.097,166.505 175.348 C 153.018 160.501,135.300 96.150,141.878 85.906 C 153.126 68.391,142.671 52.142,121.705 54.554 C 100.275 57.018,93.271 79.449,109.678 93.066 C 120.430 101.990,125.246 186.679,115.000 186.655 C 104.683 186.630,70.826 123.854,70.421 103.999 C 70.069 86.704,67.103 82.998,52.239 81.279 C 27.911 78.465,18.761 104.142,38.419 120.060 C 47.470 127.389,55.409 148.225,62.708 183.807 C 68.672 212.880,79.502 244.795,86.776 254.730 C 102.926 276.790,103.034 280.300,88.343 305.898 C 73.672 331.460,82.145 341.420,127.952 352.460 C 181.052 365.257,292.475 357.570,303.101 340.376 C 304.873 337.509,289.150 339.205,268.161 344.144 C 208.517 358.181,125.109 353.087,93.526 333.480 C 75.075 322.025,90.603 320.487,126.977 330.166 C 172.296 342.227,218.745 342.440,268.142 330.816 C 289.120 325.879,307.777 323.333,309.603 325.158 C 311.428 326.984,310.014 318.340,306.461 305.949 C 302.907 293.559,300.000 282.652,300.000 281.711 C 300.000 280.770,256.500 280.000,203.333 280.000 C 140.184 280.000,106.667 277.570,106.667 272.991 C 106.667 268.320,138.913 266.652,203.344 267.991 C 319.544 270.406,332.754 262.305,237.815 246.854 C 203.438 241.259,131.301 246.857,104.310 257.215 C 98.273 259.531,93.333 258.221,93.333 254.304 C 93.333 232.863,233.103 223.881,285.154 241.976 C 319.811 254.025,321.131 252.373,333.683 181.244 C 339.603 147.693,346.259 129.705,355.026 123.565 C 372.998 110.976,368.172 84.017,347.421 81.083 C 328.993 78.478,318.517 90.867,322.971 110.000 C 324.803 117.870,317.319 136.990,304.704 156.667 L 283.333 190.000 281.355 148.575 C 279.920 118.527,282.425 102.497,290.477 90.208 C 299.427 76.548,299.975 71.336,293.306 63.300 C 274.396 40.515,240.300 62.314,254.207 88.299 C 261.380 101.702,235.009 184.817,226.595 175.322 C 215.291 162.565,206.910 92.763,215.107 79.638 C 229.970 55.838,206.014 32.591,183.551 49.016 M196.667 307.198 C 226.000 307.241,260.480 304.138,273.289 300.304 C 301.498 291.861,300.000 291.892,300.000 299.743 C 300.000 310.239,246.636 321.448,196.667 321.448 C 146.221 321.448,90.701 309.653,96.555 300.180 C 98.619 296.841,109.472 297.073,121.757 300.718 C 133.624 304.240,167.333 307.156,196.667 307.198 " stroke="none" fill="#000000" fill-rule="evenodd"></path></g></svg>