<svg id="svg" version="1.1" xmlns="http://www.w3.org/2000/svg" xmlns:xlink="http://www.w3.org/1999/xlink" width="400" height="400" viewBox="0, 0, 400,400"><g id="svgg"><path id="path0" d="M100.000 90.000 L 100.000 113.333 208.333 114.749 L 316.667 116.164 206.667 119.749 C 112.584 122.815,98.837 124.573,111.667 131.901 C 130.421 142.614,134.299 240.694,116.879 263.726 C 111.495 270.843,106.995 283.067,106.879 290.889 C 106.749 299.577,101.273 306.522,92.806 308.736 C 82.842 311.342,79.562 316.715,81.139 327.847 L 83.333 343.333 208.333 345.147 L 333.333 346.961 333.335 328.480 L 333.337 310.000 225.002 310.508 L 116.667 311.016 211.667 308.663 C 315.005 306.104,324.644 300.995,296.455 263.726 C 279.350 241.111,283.070 152.369,301.864 134.714 C 325.897 112.136,319.590 66.667,292.424 66.667 C 281.232 66.667,271.279 70.930,269.078 76.667 C 264.108 89.617,240.714 89.617,235.744 76.667 C 230.508 63.022,182.825 63.022,177.589 76.667 C 175.479 82.167,167.658 86.667,160.209 86.667 C 152.616 86.667,146.667 82.274,146.667 76.667 C 146.667 69.683,139.630 66.667,123.333 66.667 C 101.111 66.667,100.000 67.778,100.000 90.000 M286.667 140.000 C 286.667 144.058,256.667 146.667,210.000 146.667 C 163.333 146.667,133.333 144.058,133.333 140.000 C 133.333 135.942,163.333 133.333,210.000 133.333 C 256.667 133.333,286.667 135.942,286.667 140.000 M248.333 258.269 C 225.417 259.571,187.917 259.571,165.000 258.269 C 142.083 256.968,160.833 255.902,206.667 255.902 C 252.500 255.902,271.250 256.968,248.333 258.269 M293.333 273.333 C 293.333 277.436,260.000 280.000,206.667 280.000 C 153.333 280.000,120.000 277.436,120.000 273.333 C 120.000 269.231,153.333 266.667,206.667 266.667 C 260.000 266.667,293.333 269.231,293.333 273.333 " stroke="none" fill="#000000" fill-rule="evenodd"></path></g></svg>