<svg id="svg" version="1.1" xmlns="http://www.w3.org/2000/svg" xmlns:xlink="http://www.w3.org/1999/xlink" width="400" height="400" viewBox="0, 0, 400,400"><g id="svgg"><path id="path0" d="M205.000 63.169 C 192.427 66.628,194.437 84.450,207.400 84.450 C 220.791 84.450,221.736 64.214,208.400 63.033 C 207.190 62.926,205.660 62.987,205.000 63.169 M204.061 109.605 C 196.361 111.226,181.081 119.618,171.325 127.584 C 149.954 145.032,140.400 162.909,140.400 185.451 C 140.400 204.517,150.613 219.522,166.296 223.495 C 170.536 224.569,244.402 224.558,248.599 223.483 C 268.063 218.495,279.045 195.659,273.254 172.213 C 269.934 158.771,268.200 155.218,258.846 142.682 C 251.087 132.283,237.749 121.817,223.273 114.771 C 212.631 109.591,208.898 108.587,204.061 109.605 M211.722 133.952 C 214.254 135.517,215.621 138.337,216.980 144.804 C 218.076 150.014,219.652 151.505,225.041 152.429 C 232.392 153.690,236.765 157.517,236.791 162.713 C 236.816 167.618,233.234 170.758,225.537 172.577 C 219.828 173.926,218.066 175.481,217.207 179.925 C 215.258 190.009,210.335 194.448,204.200 191.654 C 200.692 190.056,199.311 187.565,197.447 179.476 C 196.346 174.697,194.980 173.539,189.271 172.547 C 173.944 169.882,173.892 155.342,189.200 152.662 C 195.669 151.529,196.994 150.186,197.997 143.751 C 199.436 134.518,205.561 130.144,211.722 133.952 M170.817 243.655 C 161.249 245.242,153.702 255.721,160.295 258.265 C 163.252 259.406,251.548 259.406,254.505 258.265 C 261.273 255.654,253.650 245.208,243.800 243.597 C 240.759 243.100,173.847 243.153,170.817 243.655 M161.477 280.022 C 156.764 280.570,155.745 281.911,158.248 284.271 C 162.738 288.506,169.252 290.195,185.800 291.416 C 190.420 291.757,195.820 292.205,197.800 292.411 C 203.074 292.960,212.128 292.879,219.200 292.218 C 222.610 291.900,228.280 291.438,231.800 291.192 C 242.656 290.435,247.687 289.381,252.827 286.786 C 259.443 283.447,259.372 280.869,252.641 279.994 C 249.193 279.546,165.351 279.571,161.477 280.022 M204.000 318.541 C 203.230 318.842,201.250 319.741,199.600 320.538 C 197.950 321.335,195.340 322.277,193.800 322.630 C 169.760 328.140,166.885 329.825,181.600 329.777 C 188.882 329.754,188.861 329.757,197.400 327.395 C 202.772 325.909,211.585 325.795,216.500 327.147 C 218.205 327.616,220.995 328.380,222.700 328.844 C 226.174 329.790,237.692 330.350,240.600 329.714 C 244.986 328.755,240.309 327.063,221.014 322.629 C 219.481 322.277,216.421 321.143,214.214 320.110 C 209.750 318.020,206.577 317.532,204.000 318.541 " stroke="none" fill="#f1f1f1" fill-rule="evenodd"></path><path id="path1" d="M202.764 59.959 C 187.023 64.995,190.830 88.218,207.393 88.195 C 220.131 88.177,226.543 73.588,218.180 63.649 C 215.004 59.875,208.152 58.235,202.764 59.959 M212.299 64.049 C 216.008 65.842,218.304 70.274,217.890 74.843 C 216.658 88.420,196.567 87.246,196.609 73.600 C 196.634 65.576,204.965 60.505,212.299 64.049 M204.400 105.857 C 199.788 106.779,194.329 109.021,183.400 114.482 C 180.034 116.165,173.970 120.466,168.200 125.267 C 147.039 142.870,136.417 162.407,136.044 184.413 C 135.698 204.827,148.788 223.809,165.321 226.867 C 170.307 227.790,246.011 227.632,250.017 226.691 C 261.871 223.906,270.478 215.653,275.628 202.135 C 284.767 178.141,273.511 146.999,248.370 126.721 C 246.924 125.554,244.609 123.646,243.227 122.481 C 231.957 112.981,211.841 104.368,204.400 105.857 M213.081 110.202 C 220.405 112.377,235.153 120.692,242.400 126.733 C 255.063 137.288,257.911 140.394,264.988 151.364 C 279.446 173.775,277.219 206.189,260.439 217.572 C 250.140 224.558,252.996 224.202,207.400 224.190 C 165.230 224.179,166.429 224.242,161.496 221.751 C 144.813 213.325,137.892 197.610,141.012 175.241 C 144.269 151.891,163.854 128.244,190.800 115.127 C 203.451 108.969,206.592 108.275,213.081 110.202 M203.772 133.532 C 200.606 135.019,198.882 138.069,197.997 143.751 C 196.994 150.186,195.669 151.529,189.200 152.662 C 183.310 153.693,180.698 155.308,178.953 159.000 C 175.891 165.478,180.055 170.945,189.271 172.547 C 194.980 173.539,196.346 174.697,197.447 179.476 C 199.311 187.565,200.692 190.056,204.200 191.654 C 210.335 194.448,215.258 190.009,217.207 179.925 C 218.066 175.481,219.828 173.926,225.537 172.577 C 241.090 168.901,240.751 155.123,225.041 152.429 C 219.652 151.505,218.076 150.014,216.980 144.804 C 214.818 134.518,210.151 130.535,203.772 133.532 M209.919 138.249 C 211.346 139.172,212.330 141.119,213.026 144.396 C 214.966 153.528,216.168 154.925,223.328 156.366 C 234.649 158.643,235.293 166.080,224.372 168.408 C 216.512 170.084,215.185 171.404,213.523 179.200 C 211.002 191.023,203.659 190.823,201.013 178.859 C 199.289 171.062,197.679 169.448,190.600 168.411 C 179.767 166.824,179.505 158.910,190.215 156.777 C 198.262 155.175,199.534 153.895,201.219 145.706 C 202.722 138.404,205.920 135.662,209.919 138.249 M168.800 240.450 C 159.746 241.919,150.029 253.454,153.002 259.204 C 155.059 263.182,155.104 263.185,207.200 263.180 C 259.202 263.175,259.016 263.187,261.728 259.519 C 265.653 254.212,255.315 241.970,245.600 240.421 C 242.368 239.905,171.993 239.932,168.800 240.450 M243.800 243.597 C 253.650 245.208,261.273 255.654,254.505 258.265 C 251.548 259.406,163.252 259.406,160.295 258.265 C 153.702 255.721,161.249 245.242,170.817 243.655 C 173.847 243.153,240.759 243.100,243.800 243.597 M154.799 275.736 C 148.886 277.024,147.387 281.850,151.652 285.870 C 156.565 290.500,164.575 292.929,179.800 294.404 C 184.420 294.852,191.080 295.604,194.600 296.075 C 203.512 297.269,211.096 297.216,221.800 295.886 C 226.420 295.312,233.260 294.552,237.000 294.198 C 248.782 293.083,254.792 291.399,260.853 287.514 C 266.546 283.865,266.950 279.013,261.779 276.400 L 259.800 275.400 208.400 275.328 C 169.714 275.274,156.456 275.375,154.799 275.736 M252.641 279.994 C 259.372 280.869,259.443 283.447,252.827 286.786 C 247.687 289.381,242.656 290.435,231.800 291.192 C 228.280 291.438,222.610 291.900,219.200 292.218 C 212.128 292.879,203.074 292.960,197.800 292.411 C 195.820 292.205,190.420 291.757,185.800 291.416 C 169.252 290.195,162.738 288.506,158.248 284.271 C 155.745 281.911,156.764 280.570,161.477 280.022 C 165.351 279.571,249.193 279.546,252.641 279.994 M203.200 314.572 C 202.210 314.848,199.884 315.741,198.031 316.558 C 187.312 321.284,162.755 324.494,127.400 325.791 C 97.602 326.884,82.612 329.642,79.343 334.631 C 76.467 339.020,81.398 339.301,105.200 336.106 C 109.510 335.527,114.729 335.428,143.000 335.388 C 179.477 335.337,186.250 334.898,198.400 331.799 C 205.109 330.087,209.071 330.195,219.200 332.368 C 232.192 335.155,240.702 335.604,275.600 335.347 C 300.898 335.161,301.571 335.186,315.400 336.838 C 329.195 338.485,333.885 337.431,330.404 333.465 C 326.176 328.651,316.509 326.883,288.600 325.822 C 270.312 325.126,265.733 324.884,261.400 324.383 C 259.640 324.180,253.880 323.554,248.600 322.993 C 231.767 321.205,223.488 319.567,217.124 316.767 C 210.888 314.022,207.242 313.448,203.200 314.572 M214.214 320.110 C 216.421 321.143,219.481 322.277,221.014 322.629 C 240.309 327.063,244.986 328.755,240.600 329.714 C 237.692 330.350,226.174 329.790,222.700 328.844 C 220.995 328.380,218.205 327.616,216.500 327.147 C 211.585 325.795,202.772 325.909,197.400 327.395 C 188.861 329.757,188.882 329.754,181.600 329.777 C 166.885 329.825,169.760 328.140,193.800 322.630 C 195.340 322.277,197.950 321.335,199.600 320.538 C 206.329 317.286,208.075 317.235,214.214 320.110 " stroke="none" fill="#868686" fill-rule="evenodd"></path><path id="path2" d="M196.309 35.995 C 190.517 36.720,188.955 37.615,182.800 43.736 C 171.848 54.628,171.138 55.544,169.970 60.304 C 169.141 63.678,168.854 82.020,169.577 85.400 C 170.800 91.119,170.812 91.254,170.196 92.544 C 169.867 93.235,169.103 94.096,168.498 94.458 C 163.320 97.560,160.600 99.674,155.200 104.796 C 150.556 109.200,148.427 110.935,146.715 111.709 C 144.039 112.919,139.273 117.454,138.422 119.600 C 137.857 121.024,135.933 123.630,133.845 125.800 C 133.209 126.460,131.802 128.212,130.718 129.693 C 129.633 131.175,128.155 132.885,127.432 133.493 C 125.765 134.898,124.331 137.443,123.217 140.974 C 122.732 142.510,121.443 145.086,120.328 146.746 C 117.620 150.777,116.576 153.976,115.807 160.600 C 115.654 161.920,114.994 164.224,114.341 165.720 C 109.575 176.638,109.220 193.826,113.579 202.600 C 115.075 205.610,115.669 207.342,115.979 209.600 C 116.743 215.174,117.876 217.859,120.828 221.100 C 121.880 222.255,123.224 224.235,123.815 225.500 C 124.406 226.765,125.184 228.426,125.544 229.191 C 125.905 229.957,127.131 231.514,128.270 232.653 C 132.658 237.042,132.374 242.510,127.422 248.999 C 123.701 253.873,122.741 258.640,122.493 273.478 C 122.234 288.953,123.146 294.386,126.823 299.280 C 129.088 302.294,129.750 302.165,110.480 302.471 C 86.230 302.856,82.077 303.454,75.305 307.533 C 73.052 308.890,71.090 309.723,69.105 310.167 C 63.778 311.357,55.208 317.541,51.099 323.158 C 50.198 324.391,48.782 325.990,47.954 326.710 C 41.592 332.247,41.684 349.436,48.100 353.906 C 48.815 354.404,51.290 356.250,53.600 358.008 C 59.788 362.718,62.240 363.711,69.525 364.458 C 76.501 365.174,95.841 363.825,102.600 362.152 C 104.841 361.597,105.713 361.250,110.400 359.048 C 112.186 358.209,112.533 358.200,153.800 357.962 C 189.332 357.758,196.013 357.628,199.600 357.074 C 204.865 356.261,209.854 356.259,215.000 357.067 C 218.359 357.595,225.639 357.737,260.400 357.952 C 283.170 358.093,302.160 358.368,302.600 358.563 C 303.040 358.758,304.210 359.270,305.200 359.701 C 306.190 360.132,307.540 360.727,308.200 361.024 C 311.205 362.376,319.837 363.622,331.800 364.431 C 345.522 365.360,354.452 363.844,359.000 359.816 C 361.426 357.667,362.086 357.138,364.122 355.711 C 369.189 352.159,370.603 348.770,370.595 340.200 C 370.589 333.139,369.660 330.035,366.667 327.062 C 362.668 323.093,357.980 319.096,355.737 317.745 C 354.493 316.996,352.268 315.488,350.793 314.395 C 349.318 313.301,347.051 311.940,345.755 311.369 C 342.230 309.816,339.554 308.401,338.094 307.319 C 333.011 303.550,324.355 302.411,300.750 302.404 C 285.269 302.399,285.286 302.403,287.599 299.371 C 288.258 298.507,289.293 296.270,289.899 294.400 L 291.000 291.000 291.000 275.400 C 291.000 255.745,290.341 251.836,286.266 247.326 C 282.356 242.998,282.114 237.266,285.695 233.802 C 286.853 232.682,288.496 230.563,289.347 229.093 C 290.198 227.623,291.172 226.191,291.513 225.910 C 294.669 223.312,298.000 214.798,298.000 209.329 C 298.000 208.167,298.265 207.439,298.939 206.755 C 302.745 202.886,303.624 199.588,303.883 188.200 C 304.247 172.255,303.267 166.448,299.362 161.400 C 298.328 160.062,298.080 159.308,297.852 156.800 C 297.278 150.483,295.259 144.612,292.625 141.599 C 291.951 140.829,290.688 138.972,289.818 137.474 C 288.947 135.976,287.507 134.077,286.618 133.254 C 284.828 131.599,283.076 129.124,282.612 127.595 C 282.110 125.940,280.113 122.645,278.974 121.591 C 278.384 121.046,277.166 119.612,276.267 118.404 C 274.211 115.641,271.461 112.954,269.844 112.126 C 268.640 111.510,265.817 109.315,263.450 107.154 C 262.818 106.577,261.159 105.536,259.765 104.842 C 258.046 103.987,256.613 102.863,255.315 101.354 C 254.262 100.129,252.590 98.663,251.600 98.095 C 244.940 94.276,243.189 92.127,243.928 88.676 C 246.416 77.062,245.735 62.691,242.300 54.372 C 241.184 51.668,239.436 49.393,236.024 46.206 C 234.607 44.883,233.161 43.524,232.811 43.187 C 228.786 39.314,225.323 37.339,220.806 36.342 C 218.457 35.823,199.794 35.559,196.309 35.995 M232.716 44.667 C 234.081 45.950,235.921 47.597,236.805 48.328 C 237.689 49.058,238.766 50.348,239.198 51.196 C 239.832 52.438,239.114 51.863,235.492 48.228 C 233.021 45.748,230.280 43.135,229.400 42.421 C 228.018 41.300,227.966 41.206,229.017 41.729 C 229.686 42.062,231.351 43.384,232.716 44.667 M211.816 56.209 C 220.799 58.502,227.002 67.266,225.612 75.700 C 222.090 97.069,192.636 97.477,189.491 76.200 C 187.598 63.402,199.222 52.993,211.816 56.209 M171.000 94.609 C 168.934 96.339,167.034 97.200,168.800 95.606 C 170.011 94.513,171.313 93.708,172.000 93.627 C 172.110 93.614,171.660 94.056,171.000 94.609 M245.004 95.237 C 245.656 95.983,245.528 95.945,244.300 95.026 C 243.475 94.410,242.800 93.830,242.800 93.738 C 242.800 93.386,244.246 94.369,245.004 95.237 M216.278 103.767 C 218.742 104.570,223.332 106.525,226.478 108.113 C 229.625 109.701,233.137 111.410,234.282 111.911 C 236.414 112.845,244.777 118.869,248.000 121.793 C 248.990 122.691,250.700 124.135,251.800 125.001 C 255.634 128.019,260.470 132.614,261.904 134.600 C 262.699 135.700,264.131 137.535,265.087 138.679 C 268.132 142.319,274.368 152.107,275.359 154.800 C 275.885 156.230,277.344 160.100,278.600 163.400 C 281.709 171.567,281.935 172.508,282.474 179.519 C 282.996 186.312,282.497 194.472,281.348 197.935 C 274.636 218.166,262.850 228.991,246.000 230.402 C 232.588 231.525,166.994 230.745,161.800 229.401 C 152.361 226.957,141.361 217.356,137.973 208.606 C 137.290 206.843,135.921 203.434,134.930 201.032 C 130.829 191.088,130.727 178.431,134.667 168.313 C 135.462 166.271,136.518 163.070,137.013 161.200 C 138.666 154.958,138.737 154.818,145.333 144.800 C 151.148 135.967,155.430 131.163,162.984 125.000 C 164.063 124.120,165.858 122.599,166.973 121.620 C 170.566 118.466,178.488 112.798,180.573 111.890 C 181.688 111.404,184.940 109.821,187.800 108.372 C 200.678 101.845,207.161 100.797,216.278 103.767 M265.156 109.881 C 266.958 111.258,268.351 112.888,267.095 112.151 C 266.196 111.623,262.000 108.286,262.000 108.098 C 262.000 107.716,263.236 108.415,265.156 109.881 M272.400 115.612 C 272.950 116.178,273.850 117.251,274.400 117.997 C 274.950 118.743,276.035 119.999,276.811 120.789 C 278.543 122.553,280.000 124.565,280.000 125.193 C 280.000 125.451,278.584 123.893,276.854 121.731 C 273.383 117.394,271.697 115.567,269.597 113.872 L 268.200 112.744 269.800 113.664 C 270.680 114.170,271.850 115.047,272.400 115.612 M144.109 115.434 C 143.178 116.214,141.965 117.425,141.413 118.126 C 140.861 118.827,140.407 119.181,140.404 118.914 C 140.398 118.223,142.779 115.602,144.200 114.735 C 146.015 113.628,145.984 113.861,144.109 115.434 M293.619 145.105 C 294.282 146.537,294.729 147.804,294.612 147.921 C 294.496 148.038,294.400 147.937,294.400 147.698 C 294.400 147.459,293.574 146.034,292.565 144.531 C 291.556 143.029,290.634 141.646,290.516 141.459 C 290.398 141.271,290.777 141.428,291.358 141.809 C 291.949 142.197,292.944 143.647,293.619 145.105 M205.772 144.587 C 205.416 145.130,204.766 146.974,204.328 148.684 C 202.721 154.958,200.455 157.967,195.246 160.743 C 192.137 162.400,192.176 162.773,195.646 164.596 C 200.635 167.218,202.507 169.695,203.989 175.635 C 206.121 184.179,208.494 184.375,210.408 176.166 C 211.871 169.891,214.126 166.999,219.486 164.522 C 223.219 162.798,223.175 162.306,219.114 160.332 C 213.951 157.821,211.853 155.132,210.352 149.103 C 208.983 143.601,207.424 142.065,205.772 144.587 M300.103 164.086 C 300.486 164.683,300.800 165.538,300.800 165.986 C 300.800 166.434,300.950 166.800,301.133 166.800 C 302.008 166.800,302.488 170.198,302.603 177.200 L 302.724 184.600 302.417 178.400 C 302.045 170.881,300.298 164.173,298.408 163.005 C 298.183 162.866,298.000 162.459,298.000 162.101 C 298.000 161.343,298.871 162.165,300.103 164.086 M115.523 166.700 C 115.296 167.525,114.864 168.830,114.564 169.600 C 111.515 177.412,111.535 193.180,114.604 200.733 C 116.449 205.274,115.492 205.077,113.272 200.458 L 111.802 197.400 111.806 185.600 L 111.810 173.800 113.072 170.480 C 114.787 165.970,116.414 163.460,115.523 166.700 M299.019 166.437 C 299.371 167.118,299.588 167.745,299.501 167.832 C 299.414 167.919,299.044 167.362,298.678 166.595 C 297.856 164.870,298.141 164.738,299.019 166.437 M299.126 171.000 L 299.080 172.200 298.913 171.100 C 298.822 170.495,298.624 170.000,298.473 170.000 C 298.323 170.000,298.171 169.508,298.137 168.908 L 298.073 167.816 298.622 168.808 C 298.924 169.354,299.151 170.340,299.126 171.000 M115.961 170.340 C 115.717 171.039,115.625 171.887,115.755 172.226 C 115.906 172.621,115.828 172.741,115.537 172.561 C 115.219 172.364,115.165 172.606,115.358 173.374 C 115.516 174.003,115.477 174.371,115.267 174.241 C 114.897 174.012,114.268 176.801,114.612 177.146 C 114.716 177.249,114.800 177.033,114.800 176.667 C 114.800 176.300,114.960 176.000,115.155 176.000 C 115.351 176.000,115.628 175.376,115.771 174.614 C 116.213 172.259,116.661 172.707,116.676 175.519 C 116.687 177.487,116.601 177.934,116.353 177.200 C 116.060 176.334,116.046 176.361,116.245 177.400 C 116.372 178.060,116.535 180.220,116.608 182.200 L 116.740 185.800 116.188 182.800 L 115.637 179.800 115.815 182.600 C 115.914 184.140,116.017 186.300,116.044 187.400 C 116.090 189.204,116.128 189.283,116.432 188.200 C 116.813 186.840,116.595 191.324,116.178 193.400 C 115.998 194.297,116.042 194.449,116.352 194.004 C 116.654 193.569,116.735 194.025,116.651 195.693 C 116.585 197.009,116.711 198.037,116.949 198.116 C 117.212 198.204,117.194 198.356,116.900 198.538 C 116.241 198.945,115.440 197.251,115.543 195.667 C 115.597 194.831,115.475 194.430,115.215 194.591 C 114.969 194.743,114.781 194.389,114.754 193.724 C 114.723 192.989,114.642 192.853,114.518 193.331 C 114.325 194.079,115.414 199.155,116.077 200.600 C 116.434 201.377,116.427 201.378,115.835 200.642 C 113.911 198.245,113.403 195.052,113.409 185.400 C 113.414 175.911,113.605 174.432,115.358 170.239 C 116.124 168.406,116.607 168.488,115.961 170.340 M300.772 172.567 C 300.812 174.220,300.554 173.720,300.273 171.600 C 300.114 170.398,300.153 170.066,300.390 170.600 C 300.584 171.040,300.756 171.925,300.772 172.567 M114.074 185.400 C 114.063 189.752,114.192 192.284,114.400 191.800 C 114.840 190.775,114.857 181.901,114.423 179.800 C 114.199 178.719,114.086 180.536,114.074 185.400 M302.163 198.500 C 301.784 199.765,301.303 200.800,301.094 200.800 C 300.884 200.800,300.849 200.487,301.016 200.100 C 301.570 198.813,302.382 194.623,302.470 192.600 C 302.541 190.957,302.583 191.100,302.705 193.400 C 302.804 195.280,302.626 196.956,302.163 198.500 M300.621 202.333 C 300.483 202.770,299.811 203.728,299.129 204.463 C 298.325 205.330,298.122 205.448,298.550 204.800 C 298.914 204.250,299.511 203.217,299.877 202.505 C 300.588 201.123,301.038 201.019,300.621 202.333 M293.258 221.861 C 292.309 223.692,290.169 226.289,289.859 225.986 C 289.738 225.869,290.531 224.622,291.620 223.214 C 292.709 221.807,293.600 220.478,293.600 220.261 C 293.600 220.044,293.703 219.969,293.828 220.095 C 293.953 220.220,293.697 221.015,293.258 221.861 M129.100 230.904 C 130.035 231.961,130.793 233.046,130.785 233.313 C 130.759 234.145,127.027 229.819,126.521 228.371 C 126.045 227.008,126.046 227.006,126.721 227.990 C 127.094 228.535,128.165 229.846,129.100 230.904 M133.148 238.400 L 133.100 240.200 132.793 238.096 C 132.624 236.938,132.197 235.550,131.843 235.010 C 131.489 234.470,131.206 233.887,131.212 233.714 C 131.219 233.541,131.668 234.120,132.210 235.000 C 132.908 236.133,133.182 237.125,133.148 238.400 M249.053 237.667 C 255.709 239.728,262.544 246.042,266.487 253.770 C 269.058 258.811,266.177 264.307,259.296 267.486 C 256.025 268.998,255.960 269.269,258.690 270.007 C 271.940 273.590,274.155 283.629,263.191 290.406 C 256.078 294.802,253.868 295.453,240.816 296.998 C 236.185 297.546,228.878 298.539,224.579 299.203 C 209.538 301.528,205.215 301.527,190.047 299.191 C 185.731 298.526,178.457 297.537,173.881 296.992 C 155.543 294.808,145.726 289.697,144.929 281.919 C 144.345 276.216,147.266 272.850,154.945 270.377 C 157.094 269.685,158.775 269.042,158.681 268.948 C 158.587 268.854,157.070 268.080,155.309 267.229 C 148.413 263.894,146.062 259.122,148.614 253.639 C 152.619 245.034,160.364 238.572,168.305 237.206 C 172.214 236.535,246.769 236.960,249.053 237.667 M129.150 249.300 C 128.887 249.795,128.229 250.871,127.689 251.691 C 127.148 252.511,126.271 254.311,125.738 255.691 C 124.938 257.766,124.802 257.946,124.955 256.729 C 125.165 255.060,127.171 250.510,128.256 249.243 C 129.209 248.130,129.753 248.165,129.150 249.300 M84.039 305.620 C 82.410 306.046,79.755 307.121,78.139 308.008 C 75.212 309.614,74.207 309.685,76.300 308.137 C 78.932 306.191,82.645 304.881,85.600 304.856 C 86.640 304.847,86.239 305.043,84.039 305.620 M332.131 305.552 C 334.791 306.290,338.595 308.490,338.990 309.519 C 339.100 309.805,338.427 309.566,337.495 308.988 C 334.923 307.392,332.041 306.099,329.600 305.443 C 328.290 305.091,327.808 304.842,328.409 304.826 C 328.963 304.812,330.638 305.139,332.131 305.552 M82.800 307.488 C 82.470 307.611,81.300 308.156,80.200 308.699 C 79.100 309.242,78.380 309.505,78.600 309.284 C 79.274 308.606,82.152 307.198,82.794 307.232 C 83.329 307.259,83.330 307.290,82.800 307.488 M334.000 308.433 L 335.000 309.248 333.600 308.573 C 331.888 307.748,331.706 307.597,332.433 307.609 C 332.745 307.614,333.450 307.985,334.000 308.433 M213.658 311.586 C 215.056 312.018,217.865 313.094,219.901 313.978 C 226.805 316.973,230.454 317.608,248.800 319.006 C 250.670 319.149,255.530 319.610,259.600 320.031 C 263.670 320.452,274.290 321.156,283.200 321.594 C 292.110 322.032,300.930 322.565,302.800 322.779 C 304.670 322.992,309.890 323.452,314.400 323.800 C 326.252 324.714,328.162 325.293,334.782 329.987 C 340.505 334.045,341.491 336.603,338.489 339.605 C 335.019 343.075,326.140 343.293,307.870 340.355 C 302.863 339.550,301.025 339.504,271.000 339.420 L 239.400 339.331 231.000 337.903 C 208.369 334.053,206.680 334.045,185.000 337.671 C 175.126 339.323,166.472 339.657,137.200 339.519 L 113.000 339.405 105.800 340.501 C 91.736 342.642,80.952 343.277,77.267 342.183 C 71.614 340.504,69.985 334.666,74.334 331.672 C 83.070 325.659,85.549 324.905,100.200 323.806 C 104.820 323.459,110.040 323.004,111.800 322.793 C 113.560 322.583,122.470 322.049,131.600 321.607 C 140.730 321.165,149.730 320.623,151.600 320.402 C 153.470 320.181,160.310 319.549,166.800 318.999 C 185.389 317.422,187.961 316.950,195.422 313.744 C 202.832 310.561,208.263 309.918,213.658 311.586 M349.210 314.665 C 350.583 315.350,351.174 315.790,353.337 317.737 C 354.224 318.536,353.825 318.367,352.000 317.170 C 347.584 314.275,346.527 313.327,349.210 314.665 M47.991 329.100 C 47.986 329.265,47.611 329.850,47.158 330.400 L 46.333 331.400 47.053 330.100 C 47.777 328.792,48.008 328.546,47.991 329.100 M45.502 334.435 C 45.197 335.264,45.000 337.803,45.000 340.902 C 45.000 344.450,44.897 345.607,44.661 344.702 C 44.179 342.851,44.556 335.214,45.195 333.898 C 45.921 332.402,46.121 332.752,45.502 334.435 M47.487 341.095 C 47.395 341.703,47.317 341.300,47.314 340.200 C 47.311 339.100,47.387 338.603,47.482 339.095 C 47.577 339.586,47.579 340.486,47.487 341.095 M208.100 350.282 C 207.605 350.378,206.795 350.378,206.300 350.282 C 205.805 350.187,206.210 350.109,207.200 350.109 C 208.190 350.109,208.595 350.187,208.100 350.282 M210.200 351.456 C 209.893 351.764,208.885 351.823,207.087 351.637 C 203.372 351.252,203.480 351.000,207.361 351.000 C 209.826 351.000,210.541 351.115,210.200 351.456 M209.800 353.177 C 211.026 353.431,210.418 353.505,207.200 353.497 C 204.259 353.490,203.480 353.401,204.600 353.200 C 206.834 352.800,207.953 352.795,209.800 353.177 M212.600 355.204 C 213.609 355.399,211.688 355.511,207.400 355.510 C 200.405 355.507,200.087 355.440,204.200 354.835 C 206.583 354.484,209.532 354.614,212.600 355.204 M56.800 358.187 C 59.709 360.239,60.027 360.558,58.800 360.192 C 57.687 359.860,55.811 358.462,53.400 356.170 C 51.842 354.688,51.836 354.674,53.200 355.642 C 53.970 356.189,55.590 357.334,56.800 358.187 M101.256 357.200 C 101.471 357.200,101.549 357.359,101.429 357.554 C 101.061 358.149,98.970 358.272,98.462 357.729 C 98.078 357.317,98.241 357.261,99.292 357.442 C 100.345 357.623,100.483 357.575,100.000 357.196 C 99.489 356.795,99.509 356.760,100.133 356.962 C 100.536 357.093,101.041 357.200,101.256 357.200 M314.677 357.325 C 314.394 357.528,314.771 357.583,315.600 357.461 C 316.370 357.347,316.775 357.347,316.500 357.460 C 315.707 357.788,315.920 358.346,316.755 358.128 C 317.170 358.019,317.630 358.125,317.777 358.363 C 317.958 358.656,317.404 358.764,316.064 358.698 C 314.975 358.644,314.166 358.465,314.266 358.300 C 314.365 358.135,314.087 358.000,313.647 358.000 C 310.830 358.000,313.085 358.973,318.600 360.138 C 319.113 360.247,318.969 360.321,318.200 360.347 C 316.418 360.405,311.973 359.383,309.632 358.376 C 307.116 357.293,307.181 356.969,309.739 357.841 C 311.776 358.535,313.190 358.352,312.472 357.486 C 312.147 357.095,312.401 356.982,313.603 356.982 C 314.568 356.982,314.973 357.111,314.677 357.325 M106.163 357.771 C 104.784 358.736,100.734 359.927,98.000 360.171 C 95.056 360.433,95.178 360.299,98.505 359.614 C 99.966 359.314,100.713 358.982,100.543 358.708 C 100.383 358.448,100.464 358.392,100.748 358.568 C 101.374 358.955,103.669 358.436,103.383 357.972 C 103.259 357.772,103.405 357.704,103.705 357.819 C 104.006 357.934,104.690 357.854,105.226 357.640 C 106.667 357.064,107.088 357.123,106.163 357.771 M358.894 358.100 C 358.184 358.856,355.003 360.977,355.600 360.297 C 355.929 359.922,359.386 357.243,359.570 357.221 C 359.663 357.209,359.359 357.605,358.894 358.100 M109.600 358.401 C 108.231 359.472,105.374 360.800,104.438 360.800 C 104.014 360.800,103.607 360.963,103.533 361.161 C 103.367 361.611,96.964 362.413,94.000 362.355 C 91.881 362.314,91.925 362.294,95.200 361.805 C 99.372 361.183,102.423 360.387,106.600 358.831 C 110.372 357.426,110.951 357.343,109.600 358.401 M307.541 358.755 C 311.577 360.228,315.312 361.174,319.600 361.809 C 322.886 362.295,322.926 362.314,320.790 362.356 C 318.073 362.410,312.087 361.715,311.000 361.220 C 310.560 361.020,309.480 360.635,308.600 360.365 C 306.670 359.774,303.202 357.600,304.188 357.600 C 304.292 357.600,305.801 358.120,307.541 358.755 M98.200 358.400 C 98.064 358.620,97.683 358.800,97.353 358.800 C 97.023 358.800,96.864 358.620,97.000 358.400 C 97.136 358.180,97.517 358.000,97.847 358.000 C 98.177 358.000,98.336 358.180,98.200 358.400 " stroke="none" fill="#080908" fill-rule="evenodd"></path><path id="path3" d="M229.400 42.421 C 230.280 43.135,233.021 45.748,235.492 48.228 C 239.114 51.863,239.832 52.438,239.198 51.196 C 238.766 50.348,237.689 49.058,236.805 48.328 C 235.921 47.597,234.081 45.950,232.716 44.667 C 231.351 43.384,229.686 42.062,229.017 41.729 C 227.966 41.206,228.018 41.300,229.400 42.421 M201.795 56.545 C 183.788 62.380,185.619 87.911,204.323 91.811 C 215.683 94.180,227.459 82.825,225.585 71.309 C 223.734 59.934,212.620 53.037,201.795 56.545 M211.506 59.770 C 224.230 63.157,225.644 81.279,213.627 86.950 C 202.176 92.354,189.695 81.438,193.385 69.248 C 195.611 61.897,203.667 57.683,211.506 59.770 M171.000 93.996 C 170.560 94.186,169.570 94.911,168.800 95.606 C 167.034 97.200,168.934 96.339,171.000 94.609 C 172.275 93.541,172.275 93.445,171.000 93.996 M242.800 93.738 C 242.800 93.830,243.475 94.410,244.300 95.026 C 245.528 95.945,245.656 95.983,245.004 95.237 C 244.246 94.369,242.800 93.386,242.800 93.738 M202.600 102.613 C 198.191 103.711,193.048 105.712,187.800 108.372 C 184.940 109.821,181.688 111.404,180.573 111.890 C 178.488 112.798,170.566 118.466,166.973 121.620 C 165.858 122.599,164.063 124.120,162.984 125.000 C 155.430 131.163,151.148 135.967,145.333 144.800 C 138.737 154.818,138.666 154.958,137.013 161.200 C 136.518 163.070,135.462 166.271,134.667 168.313 C 130.727 178.431,130.829 191.088,134.930 201.032 C 135.921 203.434,137.290 206.843,137.973 208.606 C 141.361 217.356,152.361 226.957,161.800 229.401 C 166.994 230.745,232.588 231.525,246.000 230.402 C 262.850 228.991,274.636 218.166,281.348 197.935 C 282.497 194.472,282.996 186.312,282.474 179.519 C 281.935 172.508,281.709 171.567,278.600 163.400 C 277.344 160.100,275.885 156.230,275.359 154.800 C 274.368 152.107,268.132 142.319,265.087 138.679 C 264.131 137.535,262.699 135.700,261.904 134.600 C 260.470 132.614,255.634 128.019,251.800 125.001 C 250.700 124.135,248.990 122.691,248.000 121.793 C 244.777 118.869,236.414 112.845,234.282 111.911 C 233.137 111.410,229.625 109.701,226.478 108.113 C 216.065 102.859,208.559 101.130,202.600 102.613 M214.600 106.815 C 221.833 109.035,237.349 117.526,243.227 122.481 C 244.609 123.646,246.924 125.554,248.370 126.721 C 267.360 142.037,278.787 164.014,278.797 185.236 C 278.806 205.469,266.813 222.745,250.017 226.691 C 246.011 227.632,170.307 227.790,165.321 226.867 C 148.788 223.809,135.698 204.827,136.044 184.413 C 136.417 162.407,147.039 142.870,168.200 125.267 C 173.970 120.466,180.034 116.165,183.400 114.482 C 194.329 109.021,199.788 106.779,204.400 105.857 C 206.386 105.459,211.859 105.973,214.600 106.815 M262.000 108.098 C 262.000 108.286,266.196 111.623,267.095 112.151 C 267.412 112.337,267.510 112.254,267.367 111.921 C 266.964 110.983,262.000 107.447,262.000 108.098 M269.597 113.872 C 271.697 115.567,273.383 117.394,276.854 121.731 C 278.584 123.893,280.000 125.451,280.000 125.193 C 280.000 124.565,278.543 122.553,276.811 120.789 C 276.035 119.999,274.950 118.743,274.400 117.997 C 272.855 115.901,271.546 114.668,269.800 113.664 L 268.200 112.744 269.597 113.872 M144.200 114.735 C 142.779 115.602,140.398 118.223,140.404 118.914 C 140.407 119.181,140.861 118.827,141.413 118.126 C 141.965 117.425,143.178 116.214,144.109 115.434 C 145.984 113.861,146.015 113.628,144.200 114.735 M206.400 137.453 C 203.538 138.435,202.314 140.384,201.219 145.706 C 199.534 153.895,198.262 155.175,190.215 156.777 C 179.505 158.910,179.767 166.824,190.600 168.411 C 197.679 169.448,199.289 171.062,201.013 178.859 C 203.659 190.823,211.002 191.023,213.523 179.200 C 215.185 171.404,216.512 170.084,224.372 168.408 C 235.293 166.080,234.649 158.643,223.328 156.366 C 216.168 154.925,214.966 153.528,213.026 144.396 C 211.949 139.323,209.235 136.479,206.400 137.453 M290.516 141.459 C 290.634 141.646,291.556 143.029,292.565 144.531 C 293.574 146.034,294.400 147.459,294.400 147.698 C 294.400 147.937,294.496 148.038,294.612 147.921 C 295.047 147.486,292.381 142.479,291.358 141.809 C 290.777 141.428,290.398 141.271,290.516 141.459 M208.961 144.724 C 209.280 145.342,209.906 147.313,210.352 149.103 C 211.853 155.132,213.951 157.821,219.114 160.332 C 223.175 162.306,223.219 162.798,219.486 164.522 C 214.126 166.999,211.871 169.891,210.408 176.166 C 208.494 184.375,206.121 184.179,203.989 175.635 C 202.507 169.695,200.635 167.218,195.646 164.596 C 192.176 162.773,192.137 162.400,195.246 160.743 C 200.455 157.967,202.721 154.958,204.328 148.684 C 205.619 143.646,207.550 141.996,208.961 144.724 M298.000 162.101 C 298.000 162.459,298.183 162.866,298.408 163.005 C 300.298 164.173,302.045 170.881,302.417 178.400 L 302.724 184.600 302.603 177.200 C 302.488 170.198,302.008 166.800,301.133 166.800 C 300.950 166.800,300.800 166.434,300.800 165.986 C 300.800 165.143,299.923 163.570,298.703 162.225 C 298.104 161.564,298.000 161.545,298.000 162.101 M114.977 166.180 C 114.624 166.718,113.767 168.653,113.072 170.480 L 111.810 173.800 111.806 185.600 L 111.802 197.400 113.272 200.458 C 115.492 205.077,116.449 205.274,114.604 200.733 C 111.535 193.180,111.515 177.412,114.564 169.600 C 115.937 166.083,116.139 164.405,114.977 166.180 M298.678 166.595 C 299.044 167.362,299.414 167.919,299.501 167.832 C 299.684 167.649,298.470 165.200,298.196 165.200 C 298.095 165.200,298.312 165.828,298.678 166.595 M298.137 168.908 C 298.171 169.508,298.323 170.000,298.473 170.000 C 298.624 170.000,298.822 170.495,298.913 171.100 L 299.080 172.200 299.126 171.000 C 299.151 170.340,298.924 169.354,298.622 168.808 L 298.073 167.816 298.137 168.908 M115.358 170.239 C 112.258 177.652,112.555 196.556,115.835 200.642 C 116.427 201.378,116.434 201.377,116.077 200.600 C 115.414 199.155,114.325 194.079,114.518 193.331 C 114.642 192.853,114.723 192.989,114.754 193.724 C 114.781 194.389,114.969 194.743,115.215 194.591 C 115.475 194.430,115.597 194.831,115.543 195.667 C 115.440 197.251,116.241 198.945,116.900 198.538 C 117.194 198.356,117.212 198.204,116.949 198.116 C 116.711 198.037,116.585 197.009,116.651 195.693 C 116.735 194.025,116.654 193.569,116.352 194.004 C 116.042 194.449,115.998 194.297,116.178 193.400 C 116.595 191.324,116.813 186.840,116.432 188.200 C 116.128 189.283,116.090 189.204,116.044 187.400 C 116.017 186.300,115.914 184.140,115.815 182.600 L 115.637 179.800 116.188 182.800 L 116.740 185.800 116.608 182.200 C 116.535 180.220,116.372 178.060,116.245 177.400 C 116.046 176.361,116.060 176.334,116.353 177.200 C 116.601 177.934,116.687 177.487,116.676 175.519 C 116.661 172.707,116.213 172.259,115.771 174.614 C 115.628 175.376,115.351 176.000,115.155 176.000 C 114.960 176.000,114.800 176.300,114.800 176.667 C 114.800 177.033,114.716 177.249,114.612 177.146 C 114.268 176.801,114.897 174.012,115.267 174.241 C 115.477 174.371,115.516 174.003,115.358 173.374 C 115.165 172.606,115.219 172.364,115.537 172.561 C 115.828 172.741,115.906 172.621,115.755 172.226 C 115.625 171.887,115.717 171.039,115.961 170.340 C 116.607 168.488,116.124 168.406,115.358 170.239 M300.273 171.600 C 300.404 172.590,300.576 173.475,300.656 173.567 C 300.957 173.914,300.728 171.364,300.390 170.600 C 300.153 170.066,300.114 170.398,300.273 171.600 M114.749 186.200 C 114.746 188.840,114.589 191.360,114.400 191.800 C 114.192 192.284,114.063 189.752,114.074 185.400 C 114.086 180.536,114.199 178.719,114.423 179.800 C 114.605 180.680,114.752 183.560,114.749 186.200 M302.470 192.600 C 302.382 194.623,301.570 198.813,301.016 200.100 C 300.849 200.487,300.884 200.800,301.094 200.800 C 301.871 200.800,302.857 196.270,302.705 193.400 C 302.583 191.100,302.541 190.957,302.470 192.600 M299.877 202.505 C 299.511 203.217,298.914 204.250,298.550 204.800 C 298.122 205.448,298.325 205.330,299.129 204.463 C 300.314 203.187,301.060 201.727,300.708 201.375 C 300.618 201.284,300.244 201.793,299.877 202.505 M293.600 220.261 C 293.600 220.478,292.709 221.807,291.620 223.214 C 289.524 225.922,289.247 227.177,291.269 224.800 C 292.667 223.157,294.154 220.421,293.828 220.095 C 293.703 219.969,293.600 220.044,293.600 220.261 M126.521 228.371 C 127.027 229.819,130.759 234.145,130.785 233.313 C 130.793 233.046,130.035 231.961,129.100 230.904 C 128.165 229.846,127.094 228.535,126.721 227.990 C 126.046 227.006,126.045 227.008,126.521 228.371 M131.212 233.714 C 131.206 233.887,131.489 234.470,131.843 235.010 C 132.197 235.550,132.624 236.938,132.793 238.096 L 133.100 240.200 133.148 238.400 C 133.182 237.125,132.908 236.133,132.210 235.000 C 131.668 234.120,131.219 233.541,131.212 233.714 M168.305 237.206 C 160.364 238.572,152.619 245.034,148.614 253.639 C 146.062 259.122,148.413 263.894,155.309 267.229 C 157.070 268.080,158.587 268.854,158.681 268.948 C 158.775 269.042,157.094 269.685,154.945 270.377 C 147.266 272.850,144.345 276.216,144.929 281.919 C 145.726 289.697,155.543 294.808,173.881 296.992 C 178.457 297.537,185.731 298.526,190.047 299.191 C 205.215 301.527,209.538 301.528,224.579 299.203 C 228.878 298.539,236.185 297.546,240.816 296.998 C 253.868 295.453,256.078 294.802,263.191 290.406 C 274.155 283.629,271.940 273.590,258.690 270.007 C 255.960 269.269,256.025 268.998,259.296 267.486 C 266.177 264.307,269.058 258.811,266.487 253.770 C 262.544 246.042,255.709 239.728,249.053 237.667 C 246.769 236.960,172.214 236.535,168.305 237.206 M245.600 240.421 C 255.315 241.970,265.653 254.212,261.728 259.519 C 259.016 263.187,259.202 263.175,207.200 263.180 C 155.104 263.185,155.059 263.182,153.002 259.204 C 150.029 253.454,159.746 241.919,168.800 240.450 C 171.993 239.932,242.368 239.905,245.600 240.421 M128.256 249.243 C 127.171 250.510,125.165 255.060,124.955 256.729 C 124.802 257.946,124.938 257.766,125.738 255.691 C 126.271 254.311,127.148 252.511,127.689 251.691 C 129.699 248.641,130.044 247.155,128.256 249.243 M261.779 276.400 C 266.950 279.013,266.546 283.865,260.853 287.514 C 254.792 291.399,248.782 293.083,237.000 294.198 C 233.260 294.552,226.420 295.312,221.800 295.886 C 211.096 297.216,203.512 297.269,194.600 296.075 C 191.080 295.604,184.420 294.852,179.800 294.404 C 157.874 292.279,145.333 285.673,149.945 278.678 C 152.305 275.099,149.734 275.247,208.400 275.328 L 259.800 275.400 261.779 276.400 M82.200 305.362 C 80.061 305.891,78.075 306.825,76.300 308.137 C 74.207 309.685,75.212 309.614,78.139 308.008 C 79.755 307.121,82.410 306.046,84.039 305.620 C 86.239 305.043,86.640 304.847,85.600 304.856 C 84.830 304.863,83.300 305.090,82.200 305.362 M329.600 305.443 C 332.041 306.099,334.923 307.392,337.495 308.988 C 339.823 310.432,339.257 309.316,336.817 307.651 C 334.840 306.302,330.301 304.777,328.409 304.826 C 327.808 304.842,328.290 305.091,329.600 305.443 M80.594 308.041 C 78.216 309.296,77.890 309.839,80.200 308.699 C 81.300 308.156,82.470 307.611,82.800 307.488 C 83.330 307.290,83.329 307.259,82.794 307.232 C 82.461 307.214,81.471 307.578,80.594 308.041 M332.033 307.749 C 332.125 307.831,332.830 308.202,333.600 308.573 L 335.000 309.248 334.000 308.433 C 333.214 307.792,331.362 307.148,332.033 307.749 M201.593 311.371 C 200.599 311.645,197.822 312.713,195.422 313.744 C 187.961 316.950,185.389 317.422,166.800 318.999 C 160.310 319.549,153.470 320.181,151.600 320.402 C 149.730 320.623,140.730 321.165,131.600 321.607 C 122.470 322.049,113.560 322.583,111.800 322.793 C 110.040 323.004,104.820 323.459,100.200 323.806 C 85.549 324.905,83.070 325.659,74.334 331.672 C 69.985 334.666,71.614 340.504,77.267 342.183 C 80.952 343.277,91.736 342.642,105.800 340.501 L 113.000 339.405 137.200 339.519 C 166.472 339.657,175.126 339.323,185.000 337.671 C 206.680 334.045,208.369 334.053,231.000 337.903 L 239.400 339.331 271.000 339.420 C 301.025 339.504,302.863 339.550,307.870 340.355 C 326.140 343.293,335.019 343.075,338.489 339.605 C 341.491 336.603,340.505 334.045,334.782 329.987 C 328.162 325.293,326.252 324.714,314.400 323.800 C 309.890 323.452,304.670 322.992,302.800 322.779 C 300.930 322.565,292.110 322.032,283.200 321.594 C 274.290 321.156,263.670 320.452,259.600 320.031 C 255.530 319.610,250.670 319.149,248.800 319.006 C 230.454 317.608,226.805 316.973,219.901 313.978 C 212.534 310.781,206.724 309.954,201.593 311.371 M211.244 314.576 C 212.460 314.893,215.106 315.879,217.124 316.767 C 223.488 319.567,231.767 321.205,248.600 322.993 C 253.880 323.554,259.640 324.180,261.400 324.383 C 265.733 324.884,270.312 325.126,288.600 325.822 C 316.509 326.883,326.176 328.651,330.404 333.465 C 333.885 337.431,329.195 338.485,315.400 336.838 C 301.571 335.186,300.898 335.161,275.600 335.347 C 240.702 335.604,232.192 335.155,219.200 332.368 C 209.071 330.195,205.109 330.087,198.400 331.799 C 186.250 334.898,179.477 335.337,143.000 335.388 C 114.729 335.428,109.510 335.527,105.200 336.106 C 81.398 339.301,76.467 339.020,79.343 334.631 C 82.612 329.642,97.602 326.884,127.400 325.791 C 162.755 324.494,187.312 321.284,198.031 316.558 C 203.971 313.940,207.035 313.480,211.244 314.576 M348.446 314.733 C 350.739 316.495,354.571 318.849,353.337 317.737 C 351.174 315.790,350.583 315.350,349.210 314.665 C 347.484 313.804,347.263 313.824,348.446 314.733 M47.053 330.100 L 46.333 331.400 47.158 330.400 C 47.889 329.513,48.214 328.800,47.886 328.800 C 47.824 328.800,47.449 329.385,47.053 330.100 M45.195 333.898 C 44.556 335.214,44.179 342.851,44.661 344.702 C 44.897 345.607,45.000 344.450,45.000 340.902 C 45.000 337.803,45.197 335.264,45.502 334.435 C 46.121 332.752,45.921 332.402,45.195 333.898 M47.314 340.200 C 47.317 341.300,47.395 341.703,47.487 341.095 C 47.579 340.486,47.577 339.586,47.482 339.095 C 47.387 338.603,47.311 339.100,47.314 340.200 M206.300 350.282 C 206.795 350.378,207.605 350.378,208.100 350.282 C 208.595 350.187,208.190 350.109,207.200 350.109 C 206.210 350.109,205.805 350.187,206.300 350.282 M204.247 351.181 C 204.717 351.650,209.773 351.884,210.200 351.456 C 210.541 351.115,209.826 351.000,207.361 351.000 C 205.549 351.000,204.148 351.081,204.247 351.181 M204.600 353.200 C 203.480 353.401,204.259 353.490,207.200 353.497 C 210.418 353.505,211.026 353.431,209.800 353.177 C 207.953 352.795,206.834 352.800,204.600 353.200 M204.200 354.835 C 200.087 355.440,200.405 355.507,207.400 355.510 C 211.688 355.511,213.609 355.399,212.600 355.204 C 209.532 354.614,206.583 354.484,204.200 354.835 M53.400 356.170 C 55.811 358.462,57.687 359.860,58.800 360.192 C 60.027 360.558,59.709 360.239,56.800 358.187 C 55.590 357.334,53.970 356.189,53.200 355.642 C 51.836 354.674,51.842 354.688,53.400 356.170 M100.000 357.196 C 100.483 357.575,100.345 357.623,99.292 357.442 C 98.241 357.261,98.078 357.317,98.462 357.729 C 98.970 358.272,101.061 358.149,101.429 357.554 C 101.549 357.359,101.471 357.200,101.256 357.200 C 101.041 357.200,100.536 357.093,100.133 356.962 C 99.509 356.760,99.489 356.795,100.000 357.196 M312.472 357.486 C 313.190 358.352,311.776 358.535,309.739 357.841 C 307.181 356.969,307.116 357.293,309.632 358.376 C 311.973 359.383,316.418 360.405,318.200 360.347 C 318.969 360.321,319.113 360.247,318.600 360.138 C 313.085 358.973,310.830 358.000,313.647 358.000 C 314.087 358.000,314.365 358.135,314.266 358.300 C 314.166 358.465,314.975 358.644,316.064 358.698 C 317.404 358.764,317.958 358.656,317.777 358.363 C 317.630 358.125,317.170 358.019,316.755 358.128 C 315.920 358.346,315.707 357.788,316.500 357.460 C 316.775 357.347,316.370 357.347,315.600 357.461 C 314.771 357.583,314.394 357.528,314.677 357.325 C 314.973 357.111,314.568 356.982,313.603 356.982 C 312.401 356.982,312.147 357.095,312.472 357.486 M105.226 357.640 C 104.690 357.854,104.006 357.934,103.705 357.819 C 103.405 357.704,103.259 357.772,103.383 357.972 C 103.669 358.436,101.374 358.955,100.748 358.568 C 100.464 358.392,100.383 358.448,100.543 358.708 C 100.713 358.982,99.966 359.314,98.505 359.614 C 95.178 360.299,95.056 360.433,98.000 360.171 C 100.734 359.927,104.784 358.736,106.163 357.771 C 107.088 357.123,106.667 357.064,105.226 357.640 M357.600 358.655 C 355.273 360.483,355.106 360.694,356.724 359.762 C 357.874 359.100,360.043 357.163,359.570 357.221 C 359.476 357.232,358.590 357.877,357.600 358.655 M106.600 358.831 C 102.423 360.387,99.372 361.183,95.200 361.805 C 91.925 362.294,91.881 362.314,94.000 362.355 C 96.964 362.413,103.367 361.611,103.533 361.161 C 103.607 360.963,104.014 360.800,104.438 360.800 C 105.374 360.800,108.231 359.472,109.600 358.401 C 110.951 357.343,110.372 357.426,106.600 358.831 M304.000 357.747 C 304.000 358.123,307.169 359.927,308.600 360.365 C 309.480 360.635,310.560 361.020,311.000 361.220 C 312.087 361.715,318.073 362.410,320.790 362.356 C 322.926 362.314,322.886 362.295,319.600 361.809 C 315.312 361.174,311.577 360.228,307.541 358.755 C 304.319 357.579,304.000 357.488,304.000 357.747 M97.000 358.400 C 96.864 358.620,97.023 358.800,97.353 358.800 C 97.683 358.800,98.064 358.620,98.200 358.400 C 98.336 358.180,98.177 358.000,97.847 358.000 C 97.517 358.000,97.136 358.180,97.000 358.400 " stroke="none" fill="#666666" fill-rule="evenodd"></path></g></svg>