<svg id="svg" version="1.1" xmlns="http://www.w3.org/2000/svg" xmlns:xlink="http://www.w3.org/1999/xlink" width="400" height="400" viewBox="0, 0, 400,400"><g id="svgg"><path id="path0" d="M204.514 57.741 C 204.561 57.993,204.375 58.155,204.100 58.100 C 203.504 57.981,203.430 58.648,204.000 59.000 C 204.220 59.136,204.400 59.051,204.400 58.811 C 204.400 58.571,204.792 58.229,205.271 58.052 L 206.141 57.730 205.284 57.506 C 204.756 57.368,204.460 57.458,204.514 57.741 M214.765 57.630 C 214.312 57.917,214.343 57.989,214.924 57.994 C 215.368 57.998,215.537 58.178,215.362 58.462 C 215.176 58.762,215.253 58.814,215.581 58.612 C 215.954 58.381,216.022 58.548,215.841 59.250 C 215.599 60.187,215.602 60.188,216.049 59.323 C 216.608 58.239,215.698 57.040,214.765 57.630 M191.503 63.030 C 191.356 63.177,189.721 63.341,187.870 63.393 C 183.641 63.513,183.701 63.468,183.374 66.783 L 183.102 69.547 180.451 69.802 C 178.993 69.942,177.600 70.119,177.355 70.195 C 177.108 70.271,176.783 71.777,176.627 73.567 L 176.345 76.800 173.399 76.800 C 170.837 76.800,170.422 76.901,170.208 77.575 C 169.749 79.022,169.854 88.182,170.379 92.439 C 171.191 99.020,170.615 100.257,167.073 99.546 C 164.604 99.050,163.744 97.924,164.081 95.627 C 164.187 94.909,164.099 94.539,163.860 94.687 C 163.627 94.831,163.569 94.657,163.719 94.266 C 163.860 93.900,163.808 93.600,163.604 93.600 C 163.399 93.600,163.231 95.445,163.230 97.700 C 163.228 99.955,163.220 103.600,163.210 105.800 C 163.157 118.219,163.223 119.600,163.872 119.600 C 164.350 119.600,164.393 119.473,164.052 119.063 C 163.807 118.768,163.674 118.453,163.756 118.363 C 163.839 118.273,164.010 117.322,164.138 116.248 C 164.383 114.187,165.395 112.636,166.275 112.973 C 166.564 113.084,166.800 113.012,166.800 112.813 C 166.800 112.613,167.507 112.460,168.371 112.472 C 169.918 112.493,169.950 112.524,170.415 114.464 C 171.260 117.986,170.188 123.543,168.806 122.803 C 168.419 122.596,167.723 122.499,167.259 122.589 C 166.796 122.678,166.311 122.579,166.181 122.369 C 166.051 122.159,165.787 122.085,165.593 122.204 C 165.400 122.324,165.310 122.067,165.393 121.634 C 165.495 121.105,165.370 120.913,165.013 121.050 C 164.720 121.163,164.345 121.034,164.179 120.765 C 163.973 120.432,164.043 120.379,164.400 120.600 C 164.746 120.814,164.827 120.767,164.638 120.462 C 164.481 120.208,164.171 120.000,163.948 120.000 C 163.459 120.000,163.613 121.986,164.159 122.730 C 164.422 123.089,164.388 123.360,164.053 123.567 C 163.781 123.736,163.383 125.106,163.170 126.612 C 162.700 129.929,163.037 129.603,159.737 129.929 L 157.000 130.200 156.685 133.382 C 156.308 137.186,156.746 136.715,153.435 136.877 C 149.983 137.045,150.093 136.827,149.775 144.100 L 149.517 150.000 148.135 150.000 C 147.145 150.000,146.833 150.142,147.035 150.500 C 147.261 150.900,147.210 150.900,146.779 150.500 C 146.135 149.903,144.800 149.835,144.800 150.400 C 144.800 150.620,144.599 150.755,144.353 150.700 C 143.142 150.429,143.072 152.923,143.126 194.300 C 143.131 197.503,143.691 199.643,143.860 197.100 C 143.893 196.605,144.014 195.840,144.129 195.400 C 144.244 194.960,144.367 194.330,144.401 194.000 C 144.445 193.580,144.524 193.550,144.666 193.902 C 144.811 194.263,145.056 194.189,145.534 193.642 C 145.947 193.168,146.912 192.808,148.078 192.691 L 149.956 192.503 150.378 194.471 C 150.976 197.260,150.391 203.089,149.564 202.578 C 149.369 202.457,149.293 203.132,149.396 204.079 C 149.498 205.026,149.689 206.835,149.820 208.100 C 150.044 210.271,150.439 210.907,151.000 210.000 C 151.313 209.494,157.073 209.471,157.384 209.975 C 158.061 211.070,156.678 216.070,155.748 215.892 C 155.183 215.784,154.923 215.875,155.078 216.126 C 155.242 216.391,155.060 216.421,154.566 216.210 C 154.145 216.031,153.491 215.872,153.113 215.856 C 152.698 215.840,152.329 215.388,152.181 214.714 C 152.017 213.967,151.683 213.600,151.168 213.600 C 150.746 213.600,150.400 213.420,150.400 213.200 C 150.400 212.980,150.535 212.800,150.700 212.800 C 150.865 212.800,151.000 212.350,151.000 211.800 C 151.000 211.250,150.775 210.800,150.500 210.800 C 150.166 210.800,150.000 211.472,150.000 212.826 C 150.000 215.259,150.587 216.567,151.518 216.210 C 151.880 216.071,152.043 216.090,151.881 216.252 C 151.510 216.624,153.805 217.610,154.946 217.570 C 155.587 217.547,155.451 217.400,154.400 216.981 L 153.000 216.424 154.600 216.665 C 156.663 216.976,156.532 216.782,157.027 220.241 C 157.499 223.536,157.248 224.148,155.552 223.835 C 155.029 223.739,153.864 223.646,152.964 223.630 C 151.590 223.605,151.243 223.424,150.796 222.500 C 150.377 221.633,150.231 221.545,150.105 222.087 C 149.947 222.770,149.297 222.954,145.667 223.346 C 143.542 223.575,143.575 223.542,143.346 225.667 C 142.847 230.291,143.044 230.000,140.415 230.000 C 136.836 230.000,136.800 230.034,136.800 233.419 C 136.800 236.846,136.905 236.739,133.436 236.867 C 131.956 236.922,130.639 237.137,130.510 237.345 C 130.378 237.560,130.519 237.598,130.838 237.432 C 131.147 237.272,131.085 237.399,130.700 237.714 C 130.172 238.148,130.000 238.890,130.000 240.744 L 130.000 243.200 128.700 243.232 C 127.400 243.263,127.400 243.263,129.116 243.870 L 130.832 244.477 130.716 247.539 L 130.600 250.600 128.217 250.722 C 124.789 250.899,124.217 250.669,123.714 248.911 L 123.281 247.400 123.276 249.400 C 123.273 250.500,123.209 252.650,123.135 254.177 L 123.000 256.954 120.677 256.847 C 119.199 256.779,118.117 256.933,117.700 257.270 C 117.227 257.653,117.129 257.662,117.347 257.300 C 117.512 257.025,117.484 256.800,117.284 256.800 C 116.902 256.800,116.406 262.712,116.402 267.300 L 116.400 270.000 113.649 270.000 C 110.076 270.000,110.136 269.888,109.795 277.200 L 109.505 283.400 106.896 283.477 C 105.460 283.519,104.103 283.737,103.880 283.960 C 102.978 284.862,102.769 301.711,103.556 310.200 C 104.155 316.666,103.973 325.756,103.216 327.169 C 102.731 328.076,100.804 328.339,100.794 327.500 C 100.790 327.167,100.658 327.200,100.400 327.600 C 100.055 328.133,100.011 328.133,100.000 327.600 C 99.989 327.067,99.945 327.067,99.600 327.600 C 99.318 328.036,99.211 328.057,99.206 327.676 C 99.203 327.388,99.042 327.250,98.849 327.370 C 98.442 327.621,98.000 325.721,98.000 323.721 C 98.000 322.963,97.753 322.095,97.450 321.793 C 96.772 321.115,96.130 339.399,96.608 345.772 C 96.884 349.456,96.954 349.682,97.950 350.129 C 98.748 350.487,125.794 350.600,210.489 350.600 L 321.978 350.600 322.889 349.689 C 323.931 348.648,324.196 332.554,323.358 321.200 C 322.956 315.754,322.000 314.803,322.000 319.850 C 322.000 320.955,321.845 321.551,321.597 321.398 C 321.376 321.261,321.087 321.430,320.955 321.772 C 320.824 322.115,320.561 322.299,320.371 322.182 C 320.181 322.065,319.808 322.318,319.542 322.744 C 319.062 323.513,318.958 323.502,317.242 322.508 C 316.275 321.948,316.052 307.813,316.968 305.181 C 317.613 303.329,317.908 291.241,317.323 290.656 C 317.170 290.503,317.034 289.129,317.021 287.602 C 316.989 284.018,316.488 283.460,313.271 283.425 L 310.920 283.400 310.659 277.717 C 310.293 269.729,309.827 269.180,304.233 270.137 C 304.026 270.173,303.832 267.576,303.789 264.200 C 303.746 260.900,303.518 257.750,303.281 257.200 C 303.044 256.650,302.839 256.395,302.825 256.633 C 302.794 257.176,302.418 257.249,299.200 257.332 L 296.600 257.400 296.483 254.545 C 296.395 252.389,296.518 251.539,296.983 251.074 C 297.665 250.392,297.817 249.819,297.217 250.189 C 296.982 250.335,296.918 249.610,297.050 248.313 C 297.211 246.739,297.155 246.353,296.833 246.800 C 296.506 247.254,296.465 247.069,296.663 246.038 C 296.837 245.135,296.784 244.763,296.508 244.933 C 296.276 245.077,296.115 244.894,296.145 244.523 C 296.210 243.729,293.684 243.044,291.770 243.338 L 290.540 243.527 290.456 241.464 C 290.285 237.240,289.940 236.800,286.798 236.800 L 284.058 236.800 283.798 234.500 C 283.326 230.316,283.265 230.232,280.462 229.960 C 277.446 229.668,277.584 229.805,277.226 226.770 C 276.815 223.284,273.514 221.956,268.761 223.363 C 267.792 223.650,266.100 223.866,265.000 223.842 L 263.000 223.800 263.116 221.014 C 263.238 218.052,263.883 216.800,265.286 216.800 C 265.704 216.800,265.936 216.980,265.800 217.200 C 265.664 217.420,265.935 217.600,266.403 217.600 C 267.605 217.600,268.873 218.358,268.549 218.882 C 268.372 219.169,268.462 219.209,268.806 218.996 C 269.194 218.756,269.265 218.853,269.073 219.355 C 268.926 219.737,268.973 219.940,269.179 219.813 C 269.681 219.503,269.540 218.037,269.017 218.128 C 268.788 218.167,268.643 217.981,268.695 217.714 C 268.753 217.418,268.519 217.318,268.095 217.457 C 267.713 217.582,267.967 217.320,268.660 216.873 C 270.092 215.950,270.656 213.897,270.207 211.241 C 270.045 210.284,270.109 209.580,270.372 209.417 C 270.610 209.271,270.800 207.918,270.800 206.376 L 270.800 203.600 272.000 203.600 C 272.827 203.600,273.200 203.404,273.200 202.968 C 273.200 202.482,272.938 202.394,272.064 202.586 C 270.138 203.009,268.607 197.803,269.930 195.331 C 270.520 194.228,274.638 194.497,275.691 195.707 C 276.372 196.491,276.388 196.486,276.885 195.350 C 277.561 193.807,277.866 158.603,277.211 157.813 C 276.951 157.500,276.881 156.636,277.036 155.664 C 277.678 151.648,276.571 150.000,273.232 150.000 L 270.922 150.000 270.652 144.636 C 270.267 136.960,270.189 136.800,266.807 136.800 L 264.093 136.800 263.805 134.100 C 263.405 130.339,263.260 130.162,260.350 129.858 C 257.359 129.545,257.681 129.855,257.358 126.980 C 257.211 125.671,256.890 124.347,256.645 124.039 C 256.165 123.433,255.987 121.544,256.436 121.822 C 256.586 121.915,256.817 121.588,256.949 121.096 C 257.297 119.797,257.253 118.000,256.873 118.000 C 256.694 118.000,256.727 116.875,256.947 115.500 C 257.474 112.217,257.449 100.348,256.910 97.800 C 256.669 96.659,256.641 95.743,256.844 95.667 C 257.040 95.593,257.189 94.693,257.175 93.667 C 257.154 92.143,257.083 91.965,256.788 92.700 C 256.589 93.195,256.264 93.600,256.067 93.600 C 255.866 93.600,255.836 94.303,255.999 95.196 C 256.370 97.223,255.863 97.679,252.976 97.919 C 249.549 98.203,249.461 98.033,249.720 91.610 C 249.839 88.635,250.128 85.702,250.362 85.092 C 250.829 83.872,250.572 79.629,249.926 77.917 C 249.545 76.909,249.335 76.827,246.859 76.717 L 244.200 76.600 243.779 73.790 C 243.226 70.096,243.267 70.138,239.906 69.820 L 237.000 69.546 236.975 67.162 C 236.940 63.888,236.400 63.411,232.686 63.363 C 231.099 63.343,229.511 63.199,229.158 63.043 C 228.174 62.608,217.020 63.008,213.268 63.613 C 210.477 64.063,209.438 64.063,206.868 63.611 C 203.560 63.030,191.943 62.591,191.503 63.030 M190.423 65.500 C 190.436 66.105,190.520 67.308,190.611 68.174 C 190.812 70.104,190.279 70.833,188.865 70.560 C 187.916 70.376,186.382 70.178,184.885 70.046 C 184.190 69.984,184.428 67.934,185.200 67.332 C 185.530 67.075,185.808 66.625,185.818 66.332 C 185.828 66.040,186.052 65.845,186.315 65.899 C 186.579 65.954,186.991 65.684,187.232 65.299 C 188.024 64.033,190.395 64.182,190.423 65.500 M231.600 65.824 C 231.600 66.167,231.780 66.336,232.000 66.200 C 232.220 66.064,232.400 66.211,232.400 66.527 C 232.400 66.843,232.670 67.326,233.000 67.600 C 233.378 67.914,233.600 67.941,233.600 67.673 C 233.600 67.439,233.420 67.136,233.200 67.000 C 232.980 66.864,232.805 66.448,232.812 66.076 C 232.823 65.461,232.861 65.464,233.237 66.108 C 233.464 66.498,233.783 66.734,233.946 66.634 C 234.109 66.533,234.207 66.967,234.163 67.598 C 234.111 68.348,234.312 68.835,234.742 69.000 C 235.785 69.402,234.568 69.905,232.200 70.051 L 230.200 70.174 230.153 67.920 C 230.114 66.048,230.210 65.706,230.718 65.901 C 231.120 66.055,231.231 65.975,231.042 65.668 C 230.883 65.411,230.943 65.200,231.176 65.200 C 231.409 65.200,231.600 65.481,231.600 65.824 M213.567 72.851 C 216.773 73.400,218.115 74.047,219.261 75.597 C 220.173 76.831,222.346 77.723,225.542 78.176 C 229.228 78.698,235.041 84.154,236.215 88.193 C 236.752 90.039,237.139 90.604,238.423 91.414 C 241.499 93.356,242.000 95.520,242.000 106.854 C 242.000 117.043,240.832 121.600,238.221 121.600 C 236.838 121.600,236.366 123.021,236.484 126.828 L 236.600 130.558 239.093 131.291 C 241.010 131.855,241.841 132.351,242.693 133.441 C 244.622 135.908,244.963 136.234,246.656 137.233 C 250.207 139.328,255.377 145.599,256.192 148.798 C 256.559 150.240,256.994 150.831,258.374 151.759 C 261.350 153.761,261.671 155.081,262.975 170.695 C 263.325 174.887,263.389 177.724,263.155 178.695 C 262.956 179.523,262.522 184.037,262.191 188.727 C 261.505 198.434,261.159 199.570,258.308 201.482 C 256.906 202.422,256.515 202.971,256.123 204.545 C 255.527 206.943,253.902 209.115,252.158 209.843 C 251.050 210.306,250.539 210.995,249.160 213.885 C 247.989 216.337,246.879 217.965,245.410 219.384 C 241.753 222.915,241.750 223.697,245.384 224.646 C 248.170 225.374,250.487 226.766,252.492 228.915 C 253.722 230.235,254.561 230.683,257.284 231.471 C 260.870 232.510,262.597 233.766,263.008 235.636 C 263.215 236.579,263.589 236.856,265.346 237.367 C 267.756 238.068,268.960 239.181,269.728 241.418 C 270.157 242.668,270.642 243.179,272.036 243.854 C 273.976 244.793,275.386 246.455,276.166 248.723 C 276.581 249.932,277.076 250.394,278.893 251.272 C 280.868 252.226,281.188 252.557,281.795 254.272 C 283.076 257.892,283.111 257.941,284.805 258.449 C 287.367 259.216,288.163 260.507,289.220 265.608 C 290.112 269.917,290.200 270.116,291.579 270.987 C 293.910 272.458,295.514 276.142,296.254 281.724 C 296.526 283.774,296.807 284.181,299.502 286.438 C 301.028 287.716,301.801 290.239,302.405 295.910 C 302.917 300.719,303.627 302.991,304.941 304.025 C 307.539 306.069,308.537 311.451,308.573 323.625 L 308.600 332.651 307.497 334.321 C 304.643 338.645,310.467 338.400,210.350 338.400 C 111.380 338.400,116.655 338.595,113.475 334.816 C 110.141 330.854,111.542 308.358,115.246 306.375 C 116.643 305.628,117.259 303.572,118.024 297.101 C 118.894 289.738,119.588 287.844,121.997 286.250 C 123.672 285.141,123.986 284.396,124.740 279.733 C 125.303 276.252,127.064 272.824,128.735 271.956 C 130.553 271.012,130.409 271.308,131.208 266.863 C 132.201 261.330,132.852 260.110,135.409 258.979 C 137.501 258.054,137.985 257.396,138.584 254.666 C 138.893 253.253,140.614 251.617,142.103 251.319 C 143.296 251.081,144.400 249.855,144.400 248.769 C 144.400 247.435,147.051 244.571,148.759 244.059 C 150.238 243.616,150.440 243.396,150.847 241.779 C 151.341 239.816,152.956 238.150,154.731 237.772 C 156.825 237.326,157.526 236.846,157.782 235.682 C 158.193 233.811,159.892 232.578,163.600 231.460 C 166.441 230.603,167.287 230.142,168.745 228.657 C 170.726 226.638,173.512 225.019,175.660 224.638 C 178.874 224.068,178.552 221.558,174.809 218.000 C 172.367 215.679,171.559 214.414,170.850 211.800 C 170.474 210.413,170.136 210.067,168.308 209.200 C 166.099 208.152,165.696 207.593,164.124 203.400 C 163.618 202.052,163.026 201.233,162.306 200.887 C 159.451 199.516,159.024 197.997,158.189 186.220 C 156.813 166.817,158.246 154.680,162.187 152.355 C 163.473 151.596,164.081 150.567,164.569 148.326 C 164.937 146.630,166.469 144.590,168.073 143.661 C 169.014 143.115,169.952 142.049,170.673 140.704 C 171.618 138.940,172.171 138.420,174.099 137.486 C 175.849 136.638,176.587 136.001,177.188 134.823 C 178.181 132.876,179.665 131.695,181.541 131.360 C 184.019 130.916,184.400 130.297,184.400 126.718 C 184.400 123.668,183.694 121.200,182.820 121.200 C 180.075 121.200,178.766 117.429,178.514 108.800 C 178.188 97.641,179.052 93.504,182.026 91.987 C 182.860 91.561,183.634 90.895,183.747 90.507 C 183.860 90.118,184.149 89.037,184.390 88.105 C 184.730 86.789,185.615 85.614,188.345 82.856 C 192.452 78.705,192.548 78.646,196.171 78.026 C 199.481 77.460,200.150 77.136,202.065 75.173 C 204.339 72.842,208.550 71.992,213.567 72.851 M256.000 91.000 C 255.592 91.491,255.620 91.600,256.151 91.600 C 256.508 91.600,256.800 91.330,256.800 91.000 C 256.800 90.670,256.732 90.400,256.649 90.400 C 256.566 90.400,256.274 90.670,256.000 91.000 M163.600 92.200 C 163.600 92.530,163.791 92.800,164.024 92.800 C 164.257 92.800,164.345 92.635,164.221 92.434 C 164.097 92.233,164.221 91.977,164.498 91.866 C 164.801 91.744,164.722 91.651,164.300 91.632 C 163.915 91.614,163.600 91.870,163.600 92.200 M253.907 115.622 C 255.457 116.013,256.000 116.477,256.000 117.414 C 256.000 117.982,255.858 118.359,255.684 118.252 C 255.510 118.144,255.418 118.718,255.481 119.528 C 255.543 120.338,255.491 120.775,255.364 120.500 C 255.237 120.225,254.833 120.003,254.467 120.006 C 254.063 120.010,253.968 120.128,254.225 120.306 C 254.518 120.509,254.489 120.908,254.131 121.600 C 253.845 122.150,253.609 122.420,253.606 122.200 C 253.603 121.980,253.165 121.800,252.634 121.800 C 251.941 121.800,251.778 121.932,252.057 122.269 C 252.340 122.609,252.218 122.677,251.610 122.519 C 250.508 122.230,250.138 121.460,249.799 118.741 C 249.441 115.863,250.353 114.613,252.386 115.196 C 253.062 115.390,253.746 115.582,253.907 115.622 M156.400 139.600 C 155.956 139.887,155.937 139.989,156.329 139.994 C 156.620 139.997,156.800 140.302,156.729 140.672 C 156.549 141.609,155.812 141.377,155.867 140.400 C 155.931 139.238,155.952 139.199,156.500 139.206 C 156.833 139.210,156.800 139.342,156.400 139.600 M154.897 140.332 C 154.524 140.568,154.645 140.869,155.363 141.493 C 155.896 141.956,156.437 142.230,156.566 142.101 C 156.695 141.972,156.800 142.142,156.800 142.479 C 156.800 143.279,153.802 143.326,153.147 142.536 C 152.783 142.098,152.816 142.031,153.303 142.218 C 154.023 142.494,154.615 141.780,153.987 141.392 C 153.482 141.080,154.234 139.996,154.949 140.006 C 155.242 140.010,155.224 140.124,154.897 140.332 M147.617 151.057 C 149.672 150.509,149.950 150.818,150.428 154.194 C 150.973 158.046,149.641 158.782,144.709 157.352 C 143.970 157.138,143.896 155.623,144.600 155.106 C 144.854 154.920,144.830 154.810,144.535 154.806 C 144.052 154.800,144.040 153.826,144.518 153.348 C 144.669 153.197,144.608 152.851,144.382 152.579 C 144.081 152.216,144.162 152.100,144.686 152.142 C 145.155 152.180,145.378 151.945,145.337 151.457 C 145.298 150.986,145.414 150.854,145.657 151.097 C 145.899 151.339,146.615 151.325,147.617 151.057 M271.080 153.336 C 270.967 153.631,271.012 154.096,271.181 154.370 C 271.411 154.742,271.552 154.702,271.740 154.213 C 271.905 153.782,271.835 153.655,271.534 153.841 C 271.240 154.023,271.187 153.945,271.385 153.624 C 271.607 153.265,272.023 153.485,272.862 154.403 C 273.784 155.413,273.932 155.800,273.566 156.241 C 272.990 156.935,271.870 156.980,272.108 156.300 C 272.204 156.025,272.576 155.852,272.935 155.916 C 273.386 155.996,273.512 155.837,273.344 155.399 C 273.134 154.850,273.014 154.841,272.451 155.331 C 272.093 155.641,271.530 155.800,271.200 155.683 C 270.685 155.500,270.678 155.564,271.149 156.135 C 271.618 156.703,271.611 156.800,271.100 156.800 C 270.608 156.800,270.335 153.749,270.751 152.900 C 270.942 152.511,271.243 152.911,271.080 153.336 M276.243 197.769 C 276.363 198.082,276.261 198.712,276.017 199.169 C 275.721 199.722,275.710 200.000,275.986 200.000 C 276.214 200.000,276.413 199.685,276.428 199.300 C 276.452 198.701,276.506 198.716,276.800 199.400 C 277.076 200.042,277.149 199.903,277.172 198.700 C 277.192 197.635,277.030 197.200,276.613 197.200 C 276.269 197.200,276.116 197.436,276.243 197.769 M275.430 201.300 C 275.063 201.795,274.880 201.962,275.023 201.670 C 275.239 201.232,275.139 201.231,274.442 201.667 C 273.305 202.377,273.377 203.200,274.576 203.200 C 275.694 203.200,276.228 202.557,276.072 201.400 C 275.983 200.739,276.036 200.705,276.376 201.200 C 276.730 201.716,276.789 201.702,276.794 201.100 C 276.802 200.139,276.229 200.223,275.430 201.300 M143.813 201.579 C 143.670 201.810,143.754 202.000,144.000 202.000 C 144.246 202.000,144.319 202.208,144.162 202.462 C 143.991 202.737,144.051 202.815,144.311 202.655 C 144.549 202.508,144.858 202.570,144.996 202.793 C 145.319 203.316,146.000 203.321,146.000 202.800 C 146.000 202.580,145.730 202.400,145.400 202.400 C 145.070 202.400,144.845 202.197,144.900 201.950 C 145.034 201.349,144.143 201.045,143.813 201.579 M267.200 210.893 C 267.200 211.062,266.832 211.200,266.382 211.200 C 265.843 211.200,265.605 211.424,265.682 211.859 C 265.747 212.221,265.575 212.596,265.300 212.692 C 265.025 212.788,264.800 212.661,264.800 212.410 C 264.800 212.158,265.008 212.081,265.262 212.238 C 265.567 212.427,265.614 212.346,265.401 212.001 C 265.149 211.594,264.956 211.645,264.528 212.230 C 264.051 212.883,264.068 213.014,264.660 213.221 C 265.284 213.440,265.286 213.481,264.684 213.713 C 263.843 214.035,263.678 213.741,263.679 211.915 L 263.680 210.430 265.440 210.508 C 266.408 210.552,267.200 210.725,267.200 210.893 M269.412 220.917 C 269.241 221.312,269.213 221.747,269.351 221.884 C 269.757 222.290,270.084 221.720,269.897 220.931 C 269.732 220.233,269.710 220.232,269.412 220.917 M136.741 241.200 C 136.714 242.361,136.508 243.213,136.248 243.231 C 132.836 243.469,132.597 243.414,132.710 242.412 C 132.824 241.393,133.525 240.706,134.091 241.056 C 134.272 241.168,134.394 241.111,134.363 240.930 C 134.178 239.865,134.465 239.519,135.388 239.696 C 135.931 239.799,136.281 239.730,136.164 239.542 C 136.048 239.354,136.140 239.200,136.369 239.200 C 136.608 239.200,136.766 240.052,136.741 241.200 M123.784 244.027 C 123.639 244.261,123.616 244.549,123.733 244.667 C 124.020 244.953,124.800 244.448,124.800 243.976 C 124.800 243.465,124.109 243.499,123.784 244.027 M291.900 244.904 C 292.175 245.120,292.400 245.186,292.400 245.049 C 292.400 244.912,293.092 245.475,293.938 246.300 C 294.815 247.155,295.426 248.106,295.359 248.511 C 295.295 248.902,295.412 249.116,295.621 248.987 C 295.829 248.858,296.000 249.030,296.000 249.369 C 296.000 250.167,294.692 250.478,291.979 250.324 L 289.800 250.200 289.855 248.400 C 289.971 244.588,289.983 244.534,290.700 244.521 C 291.085 244.515,291.625 244.687,291.900 244.904 M301.378 251.106 C 301.101 251.299,301.193 251.630,301.647 252.069 C 302.220 252.623,302.375 252.641,302.555 252.174 C 302.675 251.860,302.556 251.652,302.286 251.705 C 302.019 251.757,301.845 251.575,301.900 251.300 C 302.015 250.725,301.957 250.703,301.378 251.106 M108.722 284.617 C 109.930 284.352,109.946 284.370,110.188 286.274 C 110.323 287.333,110.491 288.604,110.561 289.097 C 110.777 290.623,106.672 291.557,104.809 290.406 C 104.232 290.049,104.552 287.610,105.239 287.135 C 105.638 286.860,105.511 286.821,104.800 287.000 C 104.102 287.176,103.967 287.137,104.351 286.871 C 104.689 286.637,104.775 286.279,104.574 285.945 C 104.309 285.504,104.362 285.493,104.853 285.890 C 105.681 286.560,106.606 285.730,105.934 284.920 C 105.583 284.498,105.628 284.436,106.143 284.634 C 106.552 284.791,106.802 284.681,106.806 284.343 C 106.811 283.886,106.867 283.886,107.156 284.343 C 107.391 284.714,107.886 284.801,108.722 284.617 M101.200 304.000 C 101.530 304.213,102.070 304.388,102.400 304.388 C 102.933 304.388,102.933 304.345,102.400 304.000 C 102.070 303.787,101.530 303.612,101.200 303.612 C 100.667 303.612,100.667 303.655,101.200 304.000 M320.800 304.000 C 320.800 304.220,320.991 304.400,321.224 304.400 C 321.457 304.400,321.519 304.608,321.362 304.862 C 321.200 305.124,321.251 305.216,321.480 305.074 C 321.702 304.937,322.113 305.314,322.394 305.913 C 322.730 306.628,322.972 306.813,323.101 306.454 C 323.209 306.153,323.086 305.777,322.828 305.617 C 322.569 305.457,322.412 305.073,322.479 304.763 C 322.545 304.454,322.375 304.245,322.100 304.300 C 321.825 304.355,321.600 304.220,321.600 304.000 C 321.600 303.780,321.420 303.600,321.200 303.600 C 320.980 303.600,320.800 303.780,320.800 304.000 M99.426 305.031 C 98.560 305.897,97.886 307.220,98.168 307.501 C 98.295 307.629,98.400 307.517,98.400 307.253 C 98.400 306.989,98.946 306.239,99.614 305.587 C 100.281 304.934,100.654 304.400,100.442 304.400 C 100.230 304.400,99.773 304.684,99.426 305.031 M322.597 312.801 C 322.595 314.141,322.760 314.800,323.097 314.800 C 323.434 314.800,323.600 314.140,323.600 312.800 C 323.600 311.466,323.433 310.800,323.100 310.801 C 322.767 310.802,322.599 311.471,322.597 312.801 M96.800 315.600 C 96.800 317.119,96.966 318.000,97.253 318.000 C 97.553 318.000,97.630 317.437,97.480 316.322 C 97.357 315.399,97.429 314.319,97.642 313.922 C 97.936 313.372,97.882 313.200,97.414 313.200 C 96.930 313.200,96.800 313.709,96.800 315.600 " stroke="none" fill="#0d110c" fill-rule="evenodd"></path><path id="path1" d="M205.100 57.265 C 204.495 57.486,204.000 57.868,204.000 58.113 C 204.000 58.424,204.146 58.414,204.480 58.080 C 204.744 57.816,205.239 57.611,205.580 57.625 C 205.960 57.641,205.852 57.791,205.300 58.012 C 204.805 58.211,204.400 58.571,204.400 58.811 C 204.400 59.051,204.259 59.160,204.087 59.054 C 203.914 58.947,203.759 59.833,203.742 61.022 L 203.711 63.185 205.155 63.492 C 207.012 63.888,213.355 63.876,215.300 63.474 C 216.623 63.200,217.647 61.600,216.500 61.600 C 216.335 61.600,216.167 60.970,216.127 60.200 C 216.005 57.882,215.919 57.699,215.033 57.890 C 214.426 58.021,214.345 57.966,214.734 57.690 C 215.981 56.804,207.399 56.425,205.100 57.265 M187.232 65.299 C 186.991 65.684,186.579 65.954,186.315 65.899 C 186.052 65.845,185.828 66.040,185.818 66.332 C 185.808 66.625,185.530 67.075,185.200 67.332 C 184.428 67.934,184.190 69.984,184.885 70.046 C 186.382 70.178,187.916 70.376,188.865 70.560 C 190.279 70.833,190.812 70.104,190.611 68.174 C 190.520 67.308,190.436 66.105,190.423 65.500 C 190.395 64.182,188.024 64.033,187.232 65.299 M231.042 65.668 C 231.231 65.975,231.120 66.055,230.718 65.901 C 230.210 65.706,230.114 66.048,230.153 67.920 L 230.200 70.174 232.200 70.051 C 234.568 69.905,235.785 69.402,234.742 69.000 C 234.312 68.835,234.111 68.348,234.163 67.598 C 234.207 66.967,234.109 66.533,233.946 66.634 C 233.783 66.734,233.464 66.498,233.237 66.108 C 232.861 65.464,232.823 65.461,232.812 66.076 C 232.805 66.448,232.980 66.864,233.200 67.000 C 233.420 67.136,233.600 67.439,233.600 67.673 C 233.600 67.941,233.378 67.914,233.000 67.600 C 232.670 67.326,232.400 66.843,232.400 66.527 C 232.400 66.211,232.220 66.064,232.000 66.200 C 231.780 66.336,231.600 66.167,231.600 65.824 C 231.600 65.481,231.409 65.200,231.176 65.200 C 230.943 65.200,230.883 65.411,231.042 65.668 M206.065 73.071 C 204.094 73.537,203.205 74.005,202.065 75.173 C 200.150 77.136,199.481 77.460,196.171 78.026 C 192.548 78.646,192.452 78.705,188.345 82.856 C 185.615 85.614,184.730 86.789,184.390 88.105 C 184.149 89.037,183.860 90.118,183.747 90.507 C 183.634 90.895,182.860 91.561,182.026 91.987 C 179.052 93.504,178.188 97.641,178.514 108.800 C 178.766 117.429,180.075 121.200,182.820 121.200 C 183.694 121.200,184.400 123.668,184.400 126.718 C 184.400 130.297,184.019 130.916,181.541 131.360 C 179.665 131.695,178.181 132.876,177.188 134.823 C 176.587 136.001,175.849 136.638,174.099 137.486 C 172.171 138.420,171.618 138.940,170.673 140.704 C 169.952 142.049,169.014 143.115,168.073 143.661 C 166.469 144.590,164.937 146.630,164.569 148.326 C 164.081 150.567,163.473 151.596,162.187 152.355 C 158.246 154.680,156.813 166.817,158.189 186.220 C 159.024 197.997,159.451 199.516,162.306 200.887 C 163.026 201.233,163.618 202.052,164.124 203.400 C 165.696 207.593,166.099 208.152,168.308 209.200 C 170.136 210.067,170.474 210.413,170.850 211.800 C 171.559 214.414,172.367 215.679,174.809 218.000 C 178.552 221.558,178.874 224.068,175.660 224.638 C 173.512 225.019,170.726 226.638,168.745 228.657 C 167.287 230.142,166.441 230.603,163.600 231.460 C 159.892 232.578,158.193 233.811,157.782 235.682 C 157.526 236.846,156.825 237.326,154.731 237.772 C 152.956 238.150,151.341 239.816,150.847 241.779 C 150.440 243.396,150.238 243.616,148.759 244.059 C 147.051 244.571,144.400 247.435,144.400 248.769 C 144.400 249.855,143.296 251.081,142.103 251.319 C 140.614 251.617,138.893 253.253,138.584 254.666 C 137.985 257.396,137.501 258.054,135.409 258.979 C 132.852 260.110,132.201 261.330,131.208 266.863 C 130.409 271.308,130.553 271.012,128.735 271.956 C 127.064 272.824,125.303 276.252,124.740 279.733 C 123.986 284.396,123.672 285.141,121.997 286.250 C 119.588 287.844,118.894 289.738,118.024 297.101 C 117.259 303.572,116.643 305.628,115.246 306.375 C 111.542 308.358,110.141 330.854,113.475 334.816 C 116.655 338.595,111.380 338.400,210.350 338.400 C 310.467 338.400,304.643 338.645,307.497 334.321 L 308.600 332.651 308.573 323.625 C 308.537 311.451,307.539 306.069,304.941 304.025 C 303.627 302.991,302.917 300.719,302.405 295.910 C 301.801 290.239,301.028 287.716,299.502 286.438 C 296.807 284.181,296.526 283.774,296.254 281.724 C 295.514 276.142,293.910 272.458,291.579 270.987 C 290.200 270.116,290.112 269.917,289.220 265.608 C 288.163 260.507,287.367 259.216,284.805 258.449 C 283.111 257.941,283.076 257.892,281.795 254.272 C 281.188 252.557,280.868 252.226,278.893 251.272 C 277.076 250.394,276.581 249.932,276.166 248.723 C 275.386 246.455,273.976 244.793,272.036 243.854 C 270.642 243.179,270.157 242.668,269.728 241.418 C 268.960 239.181,267.756 238.068,265.346 237.367 C 263.589 236.856,263.215 236.579,263.008 235.636 C 262.597 233.766,260.870 232.510,257.284 231.471 C 254.561 230.683,253.722 230.235,252.492 228.915 C 250.487 226.766,248.170 225.374,245.384 224.646 C 241.750 223.697,241.753 222.915,245.410 219.384 C 246.879 217.965,247.989 216.337,249.160 213.885 C 250.539 210.995,251.050 210.306,252.158 209.843 C 253.902 209.115,255.527 206.943,256.123 204.545 C 256.515 202.971,256.906 202.422,258.308 201.482 C 261.159 199.570,261.505 198.434,262.191 188.727 C 262.522 184.037,262.956 179.523,263.155 178.695 C 263.389 177.724,263.325 174.887,262.975 170.695 C 261.671 155.081,261.350 153.761,258.374 151.759 C 256.994 150.831,256.559 150.240,256.192 148.798 C 255.377 145.599,250.207 139.328,246.656 137.233 C 244.963 136.234,244.622 135.908,242.693 133.441 C 241.841 132.351,241.010 131.855,239.093 131.291 L 236.600 130.558 236.484 126.828 C 236.366 123.021,236.838 121.600,238.221 121.600 C 240.832 121.600,242.000 117.043,242.000 106.854 C 242.000 95.520,241.499 93.356,238.423 91.414 C 237.139 90.604,236.752 90.039,236.215 88.193 C 235.041 84.154,229.228 78.698,225.542 78.176 C 222.346 77.723,220.173 76.831,219.261 75.597 C 217.229 72.849,211.575 71.766,206.065 73.071 M212.800 77.385 C 214.230 77.708,217.389 78.420,219.820 78.966 C 222.251 79.512,224.715 80.139,225.295 80.360 C 226.701 80.895,233.455 87.865,234.048 89.393 C 234.306 90.057,235.501 92.075,236.703 93.877 C 240.818 100.043,241.346 113.355,237.649 117.730 C 234.551 121.398,234.209 122.245,234.065 126.612 L 233.930 130.696 235.065 131.496 C 235.689 131.936,236.970 132.685,237.910 133.161 C 238.932 133.678,240.200 134.834,241.062 136.033 C 241.979 137.310,243.189 138.386,244.391 138.996 C 245.430 139.522,246.802 140.606,247.440 141.404 C 248.078 142.202,249.629 143.977,250.887 145.348 C 252.145 146.720,253.470 148.552,253.832 149.421 C 254.512 151.056,256.962 155.211,258.612 157.528 C 262.921 163.578,261.663 192.104,256.807 198.474 C 255.915 199.643,254.574 201.881,253.825 203.446 C 252.866 205.455,251.917 206.742,250.602 207.819 C 249.578 208.659,248.310 210.193,247.786 211.228 C 247.261 212.263,245.785 214.165,244.506 215.455 C 242.595 217.382,242.006 218.316,241.207 220.692 L 240.235 223.584 241.417 224.844 C 242.068 225.536,243.590 226.544,244.800 227.082 C 246.010 227.620,247.720 228.751,248.600 229.595 C 250.081 231.016,252.822 232.398,256.503 233.581 C 257.459 233.888,258.602 234.771,259.641 236.002 C 260.658 237.209,262.280 238.470,263.937 239.344 C 266.166 240.520,266.818 241.115,267.937 242.998 C 268.672 244.236,270.006 245.779,270.902 246.428 C 271.797 247.076,273.085 248.454,273.765 249.489 C 274.444 250.525,275.869 252.027,276.930 252.828 C 278.092 253.705,279.480 255.319,280.416 256.882 C 281.272 258.310,282.929 260.296,284.099 261.296 C 286.126 263.028,286.279 263.298,287.361 267.056 C 288.513 271.062,289.653 273.738,290.403 274.202 C 291.161 274.671,293.092 278.959,293.938 282.053 C 294.838 285.350,295.879 287.414,297.726 289.571 C 299.478 291.616,299.990 293.188,301.054 299.775 C 302.186 306.786,302.841 309.478,304.134 312.440 C 305.545 315.674,305.919 317.618,306.381 324.119 C 306.858 330.832,306.660 331.680,304.270 333.157 C 300.873 335.256,303.481 335.200,210.086 335.200 L 123.571 335.200 120.188 334.352 C 117.248 333.614,116.617 333.294,115.364 331.907 L 113.922 330.311 114.188 326.656 C 114.569 321.428,115.380 316.996,116.502 314.000 C 117.808 310.515,118.663 306.737,119.401 301.200 C 120.182 295.333,120.939 292.731,122.341 291.102 C 124.144 289.006,125.843 285.606,126.563 282.651 C 127.276 279.729,128.004 278.208,130.230 275.000 C 131.410 273.300,134.000 266.340,134.000 264.871 C 134.000 264.628,135.070 263.346,136.378 262.022 C 137.686 260.698,139.494 258.352,140.395 256.809 C 141.319 255.227,142.506 253.757,143.117 253.437 C 144.426 252.753,145.969 251.108,147.136 249.153 C 147.611 248.358,148.709 247.237,149.576 246.663 C 150.498 246.053,151.712 244.661,152.500 243.310 C 153.641 241.355,154.273 240.767,156.615 239.483 C 158.137 238.649,160.197 237.102,161.191 236.045 C 162.678 234.465,163.681 233.862,166.823 232.660 C 169.573 231.608,171.031 230.792,172.023 229.749 C 172.780 228.952,174.390 227.857,175.600 227.317 C 181.396 224.726,181.545 220.075,176.001 214.800 C 174.730 213.590,173.312 211.848,172.852 210.930 C 172.391 210.011,171.130 208.514,170.050 207.603 C 168.682 206.450,167.749 205.198,166.979 203.482 C 166.371 202.126,165.237 200.023,164.460 198.809 C 158.459 189.428,157.422 162.927,162.823 156.999 C 163.224 156.559,164.556 154.194,165.781 151.743 C 167.286 148.735,168.441 146.959,169.337 146.275 C 170.066 145.719,171.355 144.178,172.200 142.851 C 173.413 140.947,174.222 140.180,176.035 139.214 C 177.588 138.386,178.794 137.346,179.756 136.008 C 180.601 134.832,181.874 133.675,182.890 133.161 C 186.704 131.231,186.800 131.096,186.798 127.673 C 186.795 123.706,186.310 122.031,184.162 118.571 C 179.524 111.099,179.421 101.480,183.904 94.437 C 185.007 92.704,186.121 90.646,186.379 89.864 C 186.675 88.967,188.248 87.035,190.639 84.632 C 194.787 80.464,195.314 80.199,202.600 78.600 C 204.360 78.213,206.610 77.669,207.600 77.390 C 209.997 76.715,209.834 76.715,212.800 77.385 M250.414 84.900 C 250.159 85.615,249.850 88.635,249.726 91.610 C 249.460 98.033,249.547 98.203,252.976 97.919 C 255.855 97.680,256.369 97.220,256.003 95.217 C 255.790 94.052,255.857 93.587,256.258 93.433 C 257.034 93.136,256.944 91.600,256.151 91.600 C 255.621 91.600,255.593 91.490,255.997 91.004 C 256.342 90.588,256.399 89.829,256.185 88.504 C 256.017 87.457,255.844 86.258,255.802 85.840 C 255.688 84.718,254.380 83.915,253.080 84.169 C 252.396 84.303,252.055 84.234,252.204 83.994 C 252.338 83.777,252.094 83.600,251.663 83.600 C 251.140 83.600,250.724 84.033,250.414 84.900 M168.178 84.860 C 166.625 85.270,165.416 86.564,164.683 88.600 C 164.367 89.480,163.974 90.515,163.811 90.900 C 163.592 91.418,163.708 91.608,164.257 91.632 C 164.683 91.650,164.785 91.750,164.498 91.866 C 164.221 91.977,164.097 92.233,164.221 92.434 C 164.345 92.635,164.279 92.800,164.074 92.800 C 163.868 92.800,163.700 93.247,163.700 93.793 C 163.700 94.339,163.825 94.708,163.978 94.614 C 164.130 94.519,164.177 94.975,164.081 95.627 C 163.787 97.635,164.654 99.085,166.333 99.389 C 167.140 99.535,168.206 99.752,168.702 99.871 C 170.451 100.291,170.973 97.891,170.411 92.006 C 169.705 84.605,169.662 84.468,168.178 84.860 M256.693 97.300 C 256.991 99.632,257.200 99.701,257.200 97.467 C 257.200 96.440,257.037 95.600,256.838 95.600 C 256.639 95.600,256.574 96.365,256.693 97.300 M163.328 99.200 C 163.328 100.630,163.401 101.215,163.489 100.500 C 163.578 99.785,163.578 98.615,163.489 97.900 C 163.401 97.185,163.328 97.770,163.328 99.200 M163.328 113.200 C 163.328 114.630,163.401 115.215,163.489 114.500 C 163.578 113.785,163.578 112.615,163.489 111.900 C 163.401 111.185,163.328 111.770,163.328 113.200 M166.800 112.813 C 166.800 113.012,166.564 113.084,166.275 112.973 C 165.395 112.636,164.383 114.187,164.138 116.248 C 164.010 117.322,163.839 118.273,163.756 118.363 C 163.674 118.453,163.807 118.768,164.052 119.063 C 164.387 119.466,164.367 119.600,163.973 119.600 C 163.645 119.600,163.739 119.837,164.224 120.230 C 164.651 120.576,164.747 120.728,164.438 120.568 C 164.056 120.370,163.973 120.433,164.179 120.765 C 164.345 121.034,164.720 121.163,165.013 121.050 C 165.370 120.913,165.495 121.105,165.393 121.634 C 165.310 122.067,165.400 122.324,165.593 122.204 C 165.787 122.085,166.051 122.159,166.181 122.369 C 166.311 122.579,166.796 122.678,167.259 122.589 C 167.723 122.499,168.419 122.596,168.806 122.803 C 170.188 123.543,171.260 117.986,170.415 114.464 C 169.950 112.524,169.918 112.493,168.371 112.472 C 167.507 112.460,166.800 112.613,166.800 112.813 M256.739 116.000 C 256.662 117.100,256.735 118.000,256.900 118.000 C 257.065 118.000,257.200 117.100,257.200 116.000 C 257.200 113.419,256.917 113.420,256.739 116.000 M250.337 115.663 C 248.928 117.072,249.854 122.059,251.610 122.519 C 252.218 122.677,252.340 122.609,252.057 122.269 C 251.778 121.932,251.941 121.800,252.634 121.800 C 253.165 121.800,253.603 121.980,253.606 122.200 C 253.609 122.420,253.845 122.150,254.131 121.600 C 254.489 120.908,254.518 120.509,254.225 120.306 C 253.968 120.128,254.063 120.010,254.467 120.006 C 254.833 120.003,255.237 120.225,255.364 120.500 C 255.491 120.775,255.543 120.338,255.481 119.528 C 255.418 118.718,255.510 118.144,255.684 118.252 C 255.858 118.359,256.000 117.982,256.000 117.414 C 256.000 116.477,255.457 116.013,253.907 115.622 C 253.746 115.582,253.062 115.390,252.386 115.196 C 251.383 114.908,251.006 114.994,250.337 115.663 M155.956 139.400 C 155.931 139.510,155.891 139.960,155.867 140.400 C 155.812 141.377,156.549 141.609,156.729 140.672 C 156.800 140.302,156.620 139.997,156.329 139.994 C 155.937 139.989,155.956 139.887,156.400 139.600 C 156.800 139.342,156.833 139.210,156.500 139.206 C 156.225 139.203,155.980 139.290,155.956 139.400 M154.030 140.564 C 153.704 140.957,153.691 141.209,153.987 141.392 C 154.615 141.780,154.023 142.494,153.303 142.218 C 152.816 142.031,152.783 142.098,153.147 142.536 C 153.802 143.326,156.800 143.279,156.800 142.479 C 156.800 142.142,156.695 141.972,156.566 142.101 C 156.437 142.230,155.896 141.956,155.363 141.493 C 154.645 140.869,154.524 140.568,154.897 140.332 C 155.224 140.124,155.242 140.010,154.949 140.006 C 154.701 140.003,154.287 140.254,154.030 140.564 M145.337 151.457 C 145.378 151.945,145.155 152.180,144.686 152.142 C 144.162 152.100,144.081 152.216,144.382 152.579 C 144.608 152.851,144.669 153.197,144.518 153.348 C 144.040 153.826,144.052 154.800,144.535 154.806 C 144.830 154.810,144.854 154.920,144.600 155.106 C 143.896 155.623,143.970 157.138,144.709 157.352 C 149.641 158.782,150.973 158.046,150.428 154.194 C 149.950 150.818,149.672 150.509,147.617 151.057 C 146.615 151.325,145.899 151.339,145.657 151.097 C 145.414 150.854,145.298 150.986,145.337 151.457 M270.751 152.900 C 270.335 153.749,270.608 156.800,271.100 156.800 C 271.611 156.800,271.618 156.703,271.149 156.135 C 270.678 155.564,270.685 155.500,271.200 155.683 C 271.530 155.800,272.093 155.641,272.451 155.331 C 273.014 154.841,273.134 154.850,273.344 155.399 C 273.512 155.837,273.386 155.996,272.935 155.916 C 272.576 155.852,272.204 156.025,272.108 156.300 C 271.870 156.980,272.990 156.935,273.566 156.241 C 273.932 155.800,273.784 155.413,272.862 154.403 C 272.023 153.485,271.607 153.265,271.385 153.624 C 271.187 153.945,271.240 154.023,271.534 153.841 C 271.835 153.655,271.905 153.782,271.740 154.213 C 271.552 154.702,271.411 154.742,271.181 154.370 C 271.012 154.096,270.967 153.631,271.080 153.336 C 271.243 152.911,270.942 152.511,270.751 152.900 M147.707 192.693 C 146.586 192.794,145.823 193.117,145.449 193.651 C 145.036 194.241,144.829 194.315,144.674 193.928 C 144.515 193.529,144.448 193.546,144.401 194.000 C 144.367 194.330,144.249 194.960,144.139 195.400 C 143.702 197.150,143.650 198.879,144.006 199.815 C 144.245 200.444,144.239 200.800,143.990 200.800 C 143.776 200.800,143.600 200.974,143.600 201.187 C 143.600 201.401,143.852 201.478,144.160 201.360 C 144.467 201.242,144.841 201.342,144.989 201.583 C 145.138 201.823,145.111 201.970,144.930 201.910 C 144.748 201.849,144.567 201.980,144.526 202.200 C 144.486 202.420,144.736 202.541,145.084 202.469 C 145.431 202.397,145.866 202.577,146.051 202.869 C 146.285 203.238,146.390 203.254,146.394 202.921 C 146.399 202.556,146.704 202.548,147.678 202.887 C 148.639 203.222,148.995 203.216,149.112 202.864 C 149.198 202.606,149.415 202.485,149.593 202.596 C 149.890 202.779,150.800 198.624,150.800 197.087 C 150.800 195.909,149.939 192.399,149.667 192.470 C 149.520 192.508,148.638 192.609,147.707 192.693 M269.930 195.331 C 268.666 197.693,270.141 203.052,271.932 202.603 C 272.552 202.447,273.049 202.550,273.256 202.877 C 273.516 203.288,273.589 203.270,273.594 202.796 C 273.597 202.464,273.979 201.956,274.442 201.667 C 275.139 201.231,275.231 201.232,274.976 201.670 C 274.807 201.962,275.169 201.674,275.780 201.030 C 276.776 199.981,276.849 199.723,276.483 198.530 C 276.155 197.460,276.185 197.200,276.637 197.200 C 277.011 197.200,277.191 196.762,277.175 195.900 C 277.151 194.669,277.129 194.651,276.768 195.553 C 276.389 196.500,276.381 196.501,275.693 195.710 C 274.638 194.497,270.521 194.227,269.930 195.331 M276.032 201.280 C 276.014 201.654,275.685 202.144,275.300 202.368 C 274.915 202.592,274.803 202.781,275.051 202.788 C 275.711 202.806,276.509 201.709,276.269 201.113 C 276.137 200.783,276.052 200.842,276.032 201.280 M150.624 210.213 C 150.070 210.632,150.012 210.800,150.424 210.800 C 150.772 210.800,151.000 211.196,151.000 211.800 C 151.000 212.350,150.865 212.800,150.700 212.800 C 150.535 212.800,150.400 212.980,150.400 213.200 C 150.400 213.420,150.746 213.600,151.168 213.600 C 151.683 213.600,152.017 213.967,152.181 214.714 C 152.329 215.388,152.698 215.840,153.113 215.856 C 153.491 215.872,154.145 216.031,154.566 216.210 C 155.060 216.421,155.242 216.391,155.078 216.126 C 154.923 215.875,155.183 215.784,155.748 215.892 C 156.678 216.070,158.061 211.070,157.384 209.975 C 157.000 209.353,151.504 209.547,150.624 210.213 M263.679 211.915 C 263.678 213.741,263.843 214.035,264.684 213.713 C 265.286 213.481,265.284 213.440,264.660 213.221 C 264.068 213.014,264.051 212.883,264.528 212.230 C 264.956 211.645,265.149 211.594,265.401 212.001 C 265.614 212.346,265.567 212.427,265.262 212.238 C 265.008 212.081,264.800 212.158,264.800 212.410 C 264.800 212.661,265.025 212.788,265.300 212.692 C 265.575 212.596,265.747 212.221,265.682 211.859 C 265.605 211.424,265.843 211.200,266.382 211.200 C 267.999 211.200,267.161 210.585,265.440 210.508 L 263.680 210.430 263.679 211.915 M154.400 217.013 L 155.800 217.601 153.921 217.379 C 151.586 217.103,150.400 218.047,150.400 220.181 C 150.400 222.649,151.104 223.596,152.964 223.630 C 153.864 223.646,155.029 223.739,155.552 223.835 C 157.248 224.148,157.499 223.536,157.027 220.241 C 156.532 216.782,156.663 216.976,154.600 216.665 L 153.000 216.424 154.400 217.013 M263.878 217.514 C 263.443 217.994,263.193 219.143,263.116 221.014 L 263.000 223.800 264.989 223.835 C 267.557 223.880,270.000 223.254,270.000 222.551 C 270.000 222.248,269.806 222.000,269.568 222.000 C 269.293 222.000,269.236 221.548,269.411 220.750 C 269.614 219.825,269.560 219.577,269.203 219.798 C 268.834 220.026,268.824 219.903,269.159 219.276 C 269.830 218.022,268.791 217.187,266.935 217.488 C 265.886 217.658,265.556 217.595,265.761 217.262 C 266.231 216.503,264.595 216.722,263.878 217.514 M136.164 239.542 C 136.281 239.730,135.931 239.799,135.388 239.696 C 134.465 239.519,134.178 239.865,134.363 240.930 C 134.394 241.111,134.272 241.168,134.091 241.056 C 133.525 240.706,132.824 241.393,132.710 242.412 C 132.597 243.414,132.836 243.469,136.248 243.231 C 136.822 243.191,136.942 239.200,136.369 239.200 C 136.140 239.200,136.048 239.354,136.164 239.542 M124.291 244.443 C 123.753 245.031,123.680 245.401,123.988 245.977 C 124.272 246.508,124.260 246.780,123.948 246.884 C 123.652 246.983,123.597 247.600,123.786 248.718 C 124.119 250.686,124.609 250.908,128.217 250.722 L 130.600 250.600 130.716 247.545 L 130.832 244.489 129.556 244.045 C 127.957 243.487,126.800 243.474,126.800 244.014 C 126.800 244.300,126.560 244.300,126.026 244.014 C 125.085 243.510,125.160 243.492,124.291 244.443 M289.955 245.567 C 289.930 246.135,289.885 247.410,289.855 248.400 L 289.800 250.200 291.979 250.324 C 294.692 250.478,296.000 250.167,296.000 249.369 C 296.000 249.030,295.829 248.858,295.621 248.987 C 295.412 249.116,295.295 248.902,295.359 248.511 C 295.426 248.106,294.815 247.155,293.938 246.300 C 293.092 245.475,292.400 244.912,292.400 245.049 C 292.400 245.186,292.175 245.120,291.900 244.904 C 290.949 244.154,290.002 244.476,289.955 245.567 M123.200 250.470 C 123.200 250.823,122.563 251.264,121.665 251.533 C 120.821 251.786,119.824 252.332,119.449 252.746 C 118.544 253.746,117.029 257.840,117.801 257.199 C 118.116 256.938,119.357 256.786,120.677 256.846 L 123.000 256.953 123.047 254.559 C 123.073 253.242,123.224 251.754,123.383 251.252 C 123.543 250.750,123.567 250.233,123.437 250.103 C 123.306 249.973,123.200 250.138,123.200 250.470 M297.012 251.045 C 296.513 251.544,296.393 252.339,296.483 254.545 L 296.600 257.400 299.200 257.332 C 300.630 257.295,302.029 257.220,302.309 257.166 C 303.046 257.022,303.343 255.415,302.816 254.429 C 302.567 253.964,302.473 253.406,302.607 253.188 C 303.798 251.262,298.734 249.323,297.012 251.045 M303.784 267.392 C 303.514 269.552,303.750 270.602,304.413 270.192 C 304.609 270.071,305.569 269.955,306.547 269.936 C 308.619 269.894,308.594 268.666,306.480 266.715 C 304.496 264.883,304.084 264.986,303.784 267.392 M106.806 284.343 C 106.802 284.681,106.552 284.791,106.143 284.634 C 105.628 284.436,105.583 284.498,105.934 284.920 C 106.606 285.730,105.681 286.560,104.853 285.890 C 104.362 285.493,104.309 285.504,104.574 285.945 C 104.775 286.279,104.689 286.637,104.351 286.871 C 103.967 287.137,104.102 287.176,104.800 287.000 C 105.511 286.821,105.638 286.860,105.239 287.135 C 104.552 287.610,104.232 290.049,104.809 290.406 C 106.672 291.557,110.777 290.623,110.561 289.097 C 110.491 288.604,110.323 287.333,110.188 286.274 C 109.946 284.370,109.930 284.352,108.722 284.617 C 107.886 284.801,107.391 284.714,107.156 284.343 C 106.867 283.886,106.811 283.886,106.806 284.343 M102.400 303.994 C 102.870 304.350,102.713 304.392,101.674 304.187 C 98.555 303.571,97.479 304.975,96.987 310.300 C 96.753 312.828,96.803 313.200,97.373 313.200 C 97.881 313.200,97.941 313.363,97.642 313.922 C 97.429 314.319,97.357 315.399,97.480 316.322 C 97.630 317.437,97.553 318.000,97.253 318.000 C 96.579 318.000,96.699 321.042,97.400 321.743 C 97.730 322.073,98.000 322.963,98.000 323.721 C 98.000 325.721,98.442 327.621,98.849 327.370 C 99.042 327.250,99.203 327.388,99.206 327.676 C 99.211 328.057,99.318 328.036,99.600 327.600 C 99.945 327.067,99.989 327.067,100.000 327.600 C 100.011 328.133,100.055 328.133,100.400 327.600 C 100.658 327.200,100.790 327.167,100.794 327.500 C 100.805 328.376,102.734 328.066,103.286 327.100 C 104.466 325.033,103.672 304.048,102.400 303.702 C 101.867 303.557,101.867 303.590,102.400 303.994 M317.137 304.518 C 316.228 306.215,316.082 319.138,316.941 321.800 C 317.352 323.075,318.978 323.647,319.557 322.720 C 319.815 322.307,320.181 322.065,320.371 322.182 C 320.561 322.299,320.824 322.115,320.955 321.772 C 321.087 321.430,321.376 321.261,321.597 321.398 C 321.845 321.551,322.000 320.955,322.000 319.850 C 322.000 315.337,322.986 315.620,323.218 320.200 L 323.442 324.600 323.521 319.700 C 323.581 315.989,323.478 314.800,323.097 314.800 C 322.760 314.800,322.595 314.141,322.597 312.801 C 322.599 311.702,322.735 310.802,322.900 310.801 C 323.322 310.799,323.263 309.118,322.815 308.411 C 322.572 308.027,322.600 307.724,322.895 307.541 C 323.227 307.336,323.212 307.096,322.840 306.648 C 322.560 306.311,322.452 305.839,322.600 305.600 C 322.976 304.992,322.062 304.001,321.371 304.267 C 321.057 304.387,320.800 304.309,320.800 304.094 C 320.800 303.356,317.558 303.731,317.137 304.518 M99.614 305.587 C 98.946 306.239,98.400 306.989,98.400 307.253 C 98.400 307.517,98.295 307.629,98.168 307.501 C 97.689 307.023,99.613 304.400,100.442 304.400 C 100.654 304.400,100.281 304.934,99.614 305.587 " stroke="none" fill="#3c3c3c" fill-rule="evenodd"></path><path id="path2" d="M207.600 77.390 C 206.610 77.669,204.360 78.213,202.600 78.600 C 195.314 80.199,194.787 80.464,190.639 84.632 C 188.248 87.035,186.675 88.967,186.379 89.864 C 186.121 90.646,185.007 92.704,183.904 94.437 C 179.421 101.480,179.524 111.099,184.162 118.571 C 186.310 122.031,186.795 123.706,186.798 127.673 C 186.800 131.096,186.704 131.231,182.890 133.161 C 181.874 133.675,180.601 134.832,179.756 136.008 C 178.794 137.346,177.588 138.386,176.035 139.214 C 174.222 140.180,173.413 140.947,172.200 142.851 C 171.355 144.178,170.066 145.719,169.337 146.275 C 168.441 146.959,167.286 148.735,165.781 151.743 C 164.556 154.194,163.224 156.559,162.823 156.999 C 157.422 162.927,158.459 189.428,164.460 198.809 C 165.237 200.023,166.371 202.126,166.979 203.482 C 167.749 205.198,168.682 206.450,170.050 207.603 C 171.130 208.514,172.391 210.011,172.852 210.930 C 173.312 211.848,174.730 213.590,176.001 214.800 C 181.545 220.075,181.396 224.726,175.600 227.317 C 174.390 227.857,172.780 228.952,172.023 229.749 C 171.031 230.792,169.573 231.608,166.823 232.660 C 163.681 233.862,162.678 234.465,161.191 236.045 C 160.197 237.102,158.137 238.649,156.615 239.483 C 154.273 240.767,153.641 241.355,152.500 243.310 C 151.712 244.661,150.498 246.053,149.576 246.663 C 148.709 247.237,147.611 248.358,147.136 249.153 C 145.969 251.108,144.426 252.753,143.117 253.437 C 142.506 253.757,141.319 255.227,140.395 256.809 C 139.494 258.352,137.686 260.698,136.378 262.022 C 135.070 263.346,134.000 264.628,134.000 264.871 C 134.000 266.340,131.410 273.300,130.230 275.000 C 128.004 278.208,127.276 279.729,126.563 282.651 C 125.843 285.606,124.144 289.006,122.341 291.102 C 120.939 292.731,120.182 295.333,119.401 301.200 C 118.663 306.737,117.808 310.515,116.502 314.000 C 115.380 316.996,114.569 321.428,114.188 326.656 L 113.922 330.311 115.364 331.907 C 116.617 333.294,117.248 333.614,120.188 334.352 L 123.571 335.200 210.086 335.200 C 303.481 335.200,300.873 335.256,304.270 333.157 C 306.660 331.680,306.858 330.832,306.381 324.119 C 305.919 317.618,305.545 315.674,304.134 312.440 C 302.841 309.478,302.186 306.786,301.054 299.775 C 299.990 293.188,299.478 291.616,297.726 289.571 C 295.879 287.414,294.838 285.350,293.938 282.053 C 293.092 278.959,291.161 274.671,290.403 274.202 C 289.653 273.738,288.513 271.062,287.361 267.056 C 286.279 263.298,286.126 263.028,284.099 261.296 C 282.929 260.296,281.272 258.310,280.416 256.882 C 279.480 255.319,278.092 253.705,276.930 252.828 C 275.869 252.027,274.444 250.525,273.765 249.489 C 273.085 248.454,271.797 247.076,270.902 246.428 C 270.006 245.779,268.672 244.236,267.937 242.998 C 266.818 241.115,266.166 240.520,263.937 239.344 C 262.280 238.470,260.658 237.209,259.641 236.002 C 258.602 234.771,257.459 233.888,256.503 233.581 C 252.822 232.398,250.081 231.016,248.600 229.595 C 247.720 228.751,246.010 227.620,244.800 227.082 C 243.590 226.544,242.068 225.536,241.417 224.844 L 240.235 223.584 241.207 220.692 C 242.006 218.316,242.595 217.382,244.506 215.455 C 245.785 214.165,247.261 212.263,247.786 211.228 C 248.310 210.193,249.578 208.659,250.602 207.819 C 251.917 206.742,252.866 205.455,253.825 203.446 C 254.574 201.881,255.915 199.643,256.807 198.474 C 261.663 192.104,262.921 163.578,258.612 157.528 C 256.962 155.211,254.512 151.056,253.832 149.421 C 253.470 148.552,252.145 146.720,250.887 145.348 C 249.629 143.977,248.078 142.202,247.440 141.404 C 246.802 140.606,245.430 139.522,244.391 138.996 C 243.189 138.386,241.979 137.310,241.062 136.033 C 240.200 134.834,238.932 133.678,237.910 133.161 C 236.970 132.685,235.689 131.936,235.065 131.496 L 233.930 130.696 234.065 126.612 C 234.209 122.245,234.551 121.398,237.649 117.730 C 241.346 113.355,240.818 100.043,236.703 93.877 C 235.501 92.075,234.306 90.057,234.048 89.393 C 233.455 87.865,226.701 80.895,225.295 80.360 C 224.715 80.139,222.251 79.512,219.820 78.966 C 217.389 78.420,214.230 77.708,212.800 77.385 C 209.834 76.715,209.997 76.715,207.600 77.390 M220.000 81.473 C 223.930 82.237,224.922 82.775,226.236 84.858 C 226.761 85.689,228.173 86.998,229.373 87.765 C 231.455 89.097,231.594 89.294,232.411 92.080 C 232.882 93.686,234.152 96.669,235.233 98.710 L 237.200 102.420 237.200 106.541 C 237.200 110.420,237.132 110.767,236.036 112.431 C 233.139 116.835,230.499 127.154,231.377 130.650 C 231.741 132.103,233.572 133.972,235.672 135.037 C 236.879 135.648,238.113 136.704,238.862 137.767 C 239.533 138.720,240.829 139.908,241.742 140.407 C 244.666 142.008,246.017 143.227,246.666 144.848 C 247.066 145.849,247.913 146.852,248.972 147.581 C 251.287 149.174,251.519 149.524,252.426 152.798 C 253.405 156.328,254.546 158.636,255.589 159.194 C 260.465 161.804,260.270 186.827,255.329 192.458 C 255.012 192.820,254.413 194.170,253.999 195.458 C 251.844 202.156,250.976 204.005,249.379 205.302 C 247.455 206.866,246.900 207.497,246.279 208.829 C 245.611 210.264,244.045 212.037,242.445 213.172 C 240.997 214.199,239.372 217.308,238.230 221.238 C 237.182 224.844,238.577 227.052,243.200 229.101 C 244.190 229.540,245.630 230.566,246.400 231.381 C 247.630 232.682,254.437 236.400,255.590 236.400 C 255.806 236.400,256.950 237.367,258.132 238.549 C 259.398 239.815,260.923 240.904,261.841 241.199 C 263.859 241.846,265.052 242.954,266.237 245.282 C 266.906 246.595,267.745 247.485,269.015 248.230 C 270.273 248.967,271.128 249.869,271.782 251.148 C 272.743 253.028,274.523 254.913,276.479 256.124 C 277.073 256.491,277.910 257.585,278.339 258.555 C 278.768 259.525,280.082 261.375,281.260 262.666 C 283.545 265.172,285.339 268.691,286.766 273.461 C 287.314 275.296,288.181 277.025,289.183 278.283 C 290.953 280.506,291.743 282.341,292.423 285.800 C 293.063 289.058,294.246 291.442,295.819 292.641 C 297.734 294.102,298.319 296.038,299.232 303.924 C 299.682 307.816,300.384 312.620,300.791 314.600 C 301.484 317.972,302.304 322.471,303.161 327.600 C 304.038 332.843,312.626 332.400,210.193 332.400 L 122.871 332.400 120.596 331.529 C 117.605 330.385,117.672 331.245,119.527 317.683 C 120.421 311.147,121.366 304.000,121.628 301.800 C 122.209 296.908,122.717 295.599,124.975 293.185 C 126.635 291.411,128.395 287.339,128.402 285.258 C 128.408 283.608,129.388 281.377,130.774 279.858 C 132.724 277.721,133.140 276.891,134.211 273.009 C 135.251 269.238,135.893 268.026,139.220 263.547 C 140.588 261.706,142.032 259.445,142.429 258.523 C 142.905 257.418,143.604 256.616,144.476 256.175 C 146.085 255.360,147.305 253.993,148.574 251.581 C 149.216 250.361,150.175 249.362,151.490 248.545 C 152.792 247.736,153.692 246.803,154.174 245.764 C 155.232 243.483,156.328 242.435,158.800 241.337 C 160.010 240.800,161.720 239.665,162.600 238.815 C 163.480 237.965,166.090 236.318,168.400 235.156 C 170.710 233.994,173.453 232.262,174.496 231.309 C 175.539 230.355,177.249 229.208,178.296 228.760 C 180.582 227.783,181.835 226.678,182.789 224.800 L 183.500 223.400 181.809 219.031 C 180.066 214.526,179.646 213.900,176.900 211.712 C 176.011 211.004,174.888 209.609,174.406 208.612 C 173.923 207.615,172.661 206.034,171.601 205.100 C 169.579 203.317,167.282 198.439,166.621 194.522 C 166.466 193.609,165.787 191.993,165.111 190.931 C 162.563 186.927,161.602 182.506,161.604 174.800 C 161.607 166.278,162.537 162.345,165.123 159.927 C 166.297 158.830,166.828 157.638,168.465 152.422 C 169.299 149.765,169.594 149.310,171.200 148.205 C 172.286 147.457,173.326 146.294,173.821 145.272 C 174.857 143.139,175.845 142.151,178.255 140.840 C 179.307 140.268,180.780 138.990,181.527 138.000 C 182.346 136.915,183.717 135.773,184.978 135.126 C 186.129 134.536,187.659 133.383,188.378 132.564 L 189.684 131.076 189.406 127.739 C 188.978 122.596,186.653 114.020,185.030 111.600 C 183.430 109.213,183.302 104.272,184.769 101.523 C 185.395 100.349,186.583 97.231,187.408 94.594 C 188.943 89.689,189.472 88.861,191.924 87.531 C 192.602 87.163,193.798 85.969,194.582 84.878 C 196.180 82.654,196.844 82.318,201.400 81.423 C 207.279 80.269,213.894 80.287,220.000 81.473 " stroke="none" fill="#8c8c8c" fill-rule="evenodd"></path><path id="path3" d="M206.200 80.638 C 203.917 80.862,198.397 81.976,197.104 82.473 C 196.501 82.704,195.366 83.787,194.582 84.878 C 193.798 85.969,192.602 87.163,191.924 87.531 C 189.472 88.861,188.943 89.689,187.408 94.594 C 186.583 97.231,185.395 100.349,184.769 101.523 C 183.302 104.272,183.430 109.213,185.030 111.600 C 186.653 114.020,188.978 122.596,189.406 127.739 L 189.684 131.076 188.378 132.564 C 187.659 133.383,186.129 134.536,184.978 135.126 C 183.717 135.773,182.346 136.915,181.527 138.000 C 180.780 138.990,179.307 140.268,178.255 140.840 C 175.845 142.151,174.857 143.139,173.821 145.272 C 173.326 146.294,172.286 147.457,171.200 148.205 C 169.594 149.310,169.299 149.765,168.465 152.422 C 166.828 157.638,166.297 158.830,165.123 159.927 C 162.537 162.345,161.607 166.278,161.604 174.800 C 161.602 182.506,162.563 186.927,165.111 190.931 C 165.787 191.993,166.466 193.609,166.621 194.522 C 167.282 198.439,169.579 203.317,171.601 205.100 C 172.661 206.034,173.923 207.615,174.406 208.612 C 174.888 209.609,176.011 211.004,176.900 211.712 C 179.646 213.900,180.066 214.526,181.809 219.031 L 183.500 223.400 182.789 224.800 C 181.835 226.678,180.582 227.783,178.296 228.760 C 177.249 229.208,175.539 230.355,174.496 231.309 C 173.453 232.262,170.710 233.994,168.400 235.156 C 166.090 236.318,163.480 237.965,162.600 238.815 C 161.720 239.665,160.010 240.800,158.800 241.337 C 156.328 242.435,155.232 243.483,154.174 245.764 C 153.692 246.803,152.792 247.736,151.490 248.545 C 150.175 249.362,149.216 250.361,148.574 251.581 C 147.305 253.993,146.085 255.360,144.476 256.175 C 143.604 256.616,142.905 257.418,142.429 258.523 C 142.032 259.445,140.588 261.706,139.220 263.547 C 135.893 268.026,135.251 269.238,134.211 273.009 C 133.140 276.891,132.724 277.721,130.774 279.858 C 129.388 281.377,128.408 283.608,128.402 285.258 C 128.395 287.339,126.635 291.411,124.975 293.185 C 122.717 295.599,122.209 296.908,121.628 301.800 C 121.366 304.000,120.421 311.147,119.527 317.683 C 117.672 331.245,117.605 330.385,120.596 331.529 L 122.871 332.400 210.193 332.400 C 312.626 332.400,304.038 332.843,303.161 327.600 C 302.304 322.471,301.484 317.972,300.791 314.600 C 300.384 312.620,299.682 307.816,299.232 303.924 C 298.319 296.038,297.734 294.102,295.819 292.641 C 294.246 291.442,293.063 289.058,292.423 285.800 C 291.743 282.341,290.953 280.506,289.183 278.283 C 288.181 277.025,287.314 275.296,286.766 273.461 C 285.339 268.691,283.545 265.172,281.260 262.666 C 280.082 261.375,278.768 259.525,278.339 258.555 C 277.910 257.585,277.073 256.491,276.479 256.124 C 274.523 254.913,272.743 253.028,271.782 251.148 C 271.128 249.869,270.273 248.967,269.015 248.230 C 267.745 247.485,266.906 246.595,266.237 245.282 C 265.052 242.954,263.859 241.846,261.841 241.199 C 260.923 240.904,259.398 239.815,258.132 238.549 C 256.950 237.367,255.806 236.400,255.590 236.400 C 254.437 236.400,247.630 232.682,246.400 231.381 C 245.630 230.566,244.190 229.540,243.200 229.101 C 238.577 227.052,237.182 224.844,238.230 221.238 C 239.372 217.308,240.997 214.199,242.445 213.172 C 244.045 212.037,245.611 210.264,246.279 208.829 C 246.900 207.497,247.455 206.866,249.379 205.302 C 250.976 204.005,251.844 202.156,253.999 195.458 C 254.413 194.170,255.012 192.820,255.329 192.458 C 260.270 186.827,260.465 161.804,255.589 159.194 C 254.546 158.636,253.405 156.328,252.426 152.798 C 251.519 149.524,251.287 149.174,248.972 147.581 C 247.913 146.852,247.066 145.849,246.666 144.848 C 246.017 143.227,244.666 142.008,241.742 140.407 C 240.829 139.908,239.533 138.720,238.862 137.767 C 238.113 136.704,236.879 135.648,235.672 135.037 C 233.572 133.972,231.741 132.103,231.377 130.650 C 230.499 127.154,233.139 116.835,236.036 112.431 C 237.132 110.767,237.200 110.420,237.200 106.541 L 237.200 102.420 235.233 98.710 C 234.152 96.669,232.882 93.686,232.411 92.080 C 231.594 89.294,231.455 89.097,229.373 87.765 C 228.173 86.998,226.761 85.689,226.236 84.858 C 224.266 81.736,214.961 79.777,206.200 80.638 M219.027 83.249 C 220.507 83.621,221.146 84.122,222.804 86.205 C 224.768 88.673,226.870 90.000,228.817 90.000 C 230.906 90.000,232.711 104.664,231.589 112.523 C 230.505 120.119,229.886 122.874,229.027 123.925 C 226.261 127.309,225.782 130.603,227.787 132.444 C 228.600 133.190,229.835 134.362,230.532 135.049 C 231.230 135.737,232.369 136.588,233.065 136.941 C 233.760 137.295,235.406 138.651,236.722 139.955 C 238.778 141.992,239.431 142.391,241.357 142.791 C 243.747 143.287,243.661 143.175,244.192 146.483 C 244.447 148.075,245.471 149.038,248.051 150.113 C 249.932 150.898,249.935 150.903,250.827 155.848 C 251.762 161.035,252.131 161.814,254.400 163.401 C 256.927 165.169,257.334 166.540,257.371 173.400 C 257.413 181.430,257.075 183.389,255.540 184.025 C 253.155 185.013,251.225 189.863,251.207 194.913 C 251.197 197.705,250.344 199.333,247.323 202.329 C 244.917 204.714,244.557 205.279,243.962 207.600 C 243.303 210.174,243.278 210.205,241.503 210.708 C 239.118 211.383,238.528 212.133,237.856 215.339 C 237.250 218.227,236.502 219.387,235.004 219.763 C 231.831 220.560,231.821 225.865,234.989 227.368 C 237.203 228.419,240.131 230.531,242.543 232.817 C 245.379 235.505,245.633 235.646,248.579 236.173 C 250.664 236.546,251.083 236.779,251.868 238.000 C 252.362 238.770,252.999 239.718,253.283 240.108 C 253.796 240.810,256.359 241.914,260.200 243.088 C 262.811 243.886,263.027 244.088,263.573 246.258 C 263.851 247.362,264.453 248.431,265.085 248.946 C 266.894 250.417,270.800 254.418,270.800 254.800 C 270.800 255.703,274.181 259.870,275.439 260.518 C 276.952 261.297,278.218 263.062,278.639 264.978 C 279.049 266.844,279.903 267.874,281.604 268.555 C 283.590 269.350,283.835 269.871,284.156 274.000 C 284.566 279.257,286.738 282.800,289.553 282.800 C 290.074 282.800,290.230 283.482,290.837 288.400 C 291.494 293.731,292.473 295.900,294.657 296.867 C 297.020 297.912,297.148 298.536,297.795 312.200 C 298.573 328.647,298.606 329.928,298.251 330.283 C 297.673 330.860,123.459 330.880,122.696 330.303 C 122.087 329.842,122.065 328.784,122.427 317.600 C 122.985 300.379,122.758 301.658,125.809 298.546 C 128.560 295.740,128.382 296.191,129.823 288.400 C 130.698 283.675,130.610 283.852,132.552 282.908 C 134.839 281.797,135.795 279.781,136.395 274.800 C 137.006 269.738,136.982 269.792,138.809 269.245 C 140.622 268.701,141.513 267.569,142.063 265.108 C 142.578 262.805,143.356 261.713,144.958 261.043 C 146.353 260.460,146.787 259.971,148.935 256.552 C 149.642 255.426,151.512 253.234,153.089 251.682 C 154.666 250.130,156.397 247.991,156.935 246.930 C 158.283 244.271,158.961 243.763,163.042 242.349 C 167.085 240.948,167.789 240.450,168.417 238.549 C 168.948 236.939,169.533 236.582,172.240 236.217 C 173.362 236.065,174.735 235.640,175.290 235.271 C 178.075 233.421,178.736 232.896,180.400 231.217 C 182.174 229.426,182.889 228.976,185.547 227.972 C 189.465 226.494,189.330 220.689,185.334 218.811 C 183.458 217.929,182.800 217.025,182.799 215.326 C 182.798 213.305,181.552 211.478,179.430 210.389 C 177.626 209.462,177.391 209.171,176.630 206.916 C 176.174 205.562,175.428 204.037,174.974 203.527 C 174.519 203.017,173.843 202.109,173.470 201.508 C 173.097 200.908,172.259 200.141,171.608 199.804 C 169.905 198.923,169.614 198.121,169.178 193.096 C 168.619 186.647,167.968 184.706,165.583 182.384 C 163.243 180.105,162.683 178.249,163.019 173.897 C 163.413 168.783,163.527 168.416,164.984 167.556 C 167.091 166.313,168.367 163.245,169.623 156.400 C 170.080 153.904,170.219 153.684,173.109 150.884 C 175.857 148.220,176.157 147.771,176.571 145.706 C 177.057 143.279,176.818 143.466,180.478 142.639 C 181.438 142.422,184.071 140.503,186.139 138.512 C 187.158 137.531,189.894 135.410,191.714 134.188 C 193.716 132.845,194.889 130.939,194.660 129.400 C 194.207 126.354,193.055 123.481,191.620 121.823 C 189.441 119.305,189.002 116.650,189.041 106.200 C 189.087 93.839,189.829 91.079,193.436 89.849 C 195.440 89.167,198.974 86.327,199.832 84.710 C 200.172 84.069,200.943 83.466,201.705 83.246 C 203.565 82.709,216.891 82.711,219.027 83.249 " stroke="none" fill="#dcdcdc" fill-rule="evenodd"></path><path id="path4" d="M201.705 83.246 C 200.943 83.466,200.172 84.069,199.832 84.710 C 198.974 86.327,195.440 89.167,193.436 89.849 C 189.829 91.079,189.087 93.839,189.041 106.200 C 189.002 116.650,189.441 119.305,191.620 121.823 C 193.055 123.481,194.207 126.354,194.660 129.400 C 194.889 130.939,193.716 132.845,191.714 134.188 C 189.894 135.410,187.158 137.531,186.139 138.512 C 184.071 140.503,181.438 142.422,180.478 142.639 C 176.818 143.466,177.057 143.279,176.571 145.706 C 176.157 147.771,175.857 148.220,173.109 150.884 C 170.219 153.684,170.080 153.904,169.623 156.400 C 168.367 163.245,167.091 166.313,164.984 167.556 C 163.527 168.416,163.413 168.783,163.019 173.897 C 162.683 178.249,163.243 180.105,165.583 182.384 C 167.968 184.706,168.619 186.647,169.178 193.096 C 169.614 198.121,169.905 198.923,171.608 199.804 C 172.259 200.141,173.097 200.908,173.470 201.508 C 173.843 202.109,174.519 203.017,174.974 203.527 C 175.428 204.037,176.174 205.562,176.630 206.916 C 177.391 209.171,177.626 209.462,179.430 210.389 C 181.552 211.478,182.798 213.305,182.799 215.326 C 182.800 217.025,183.458 217.929,185.334 218.811 C 189.330 220.689,189.465 226.494,185.547 227.972 C 182.889 228.976,182.174 229.426,180.400 231.217 C 178.736 232.896,178.075 233.421,175.290 235.271 C 174.735 235.640,173.362 236.065,172.240 236.217 C 169.533 236.582,168.948 236.939,168.417 238.549 C 167.789 240.450,167.085 240.948,163.042 242.349 C 158.961 243.763,158.283 244.271,156.935 246.930 C 156.397 247.991,154.666 250.130,153.089 251.682 C 151.512 253.234,149.642 255.426,148.935 256.552 C 146.787 259.971,146.353 260.460,144.958 261.043 C 143.356 261.713,142.578 262.805,142.063 265.108 C 141.513 267.569,140.622 268.701,138.809 269.245 C 136.982 269.792,137.006 269.738,136.395 274.800 C 135.795 279.781,134.839 281.797,132.552 282.908 C 130.610 283.852,130.698 283.675,129.823 288.400 C 128.382 296.191,128.560 295.740,125.809 298.546 C 122.758 301.658,122.985 300.379,122.427 317.600 C 122.065 328.784,122.087 329.842,122.696 330.303 C 123.459 330.880,297.673 330.860,298.251 330.283 C 298.606 329.928,298.573 328.647,297.795 312.200 C 297.148 298.536,297.020 297.912,294.657 296.867 C 292.473 295.900,291.494 293.731,290.837 288.400 C 290.230 283.482,290.074 282.800,289.553 282.800 C 286.738 282.800,284.566 279.257,284.156 274.000 C 283.835 269.871,283.590 269.350,281.604 268.555 C 279.903 267.874,279.049 266.844,278.639 264.978 C 278.218 263.062,276.952 261.297,275.439 260.518 C 274.181 259.870,270.800 255.703,270.800 254.800 C 270.800 254.418,266.894 250.417,265.085 248.946 C 264.453 248.431,263.851 247.362,263.573 246.258 C 263.027 244.088,262.811 243.886,260.200 243.088 C 256.359 241.914,253.796 240.810,253.283 240.108 C 252.999 239.718,252.362 238.770,251.868 238.000 C 251.083 236.779,250.664 236.546,248.579 236.173 C 245.633 235.646,245.379 235.505,242.543 232.817 C 240.131 230.531,237.203 228.419,234.989 227.368 C 231.821 225.865,231.831 220.560,235.004 219.763 C 236.502 219.387,237.250 218.227,237.856 215.339 C 238.528 212.133,239.118 211.383,241.503 210.708 C 243.278 210.205,243.303 210.174,243.962 207.600 C 244.557 205.279,244.917 204.714,247.323 202.329 C 250.344 199.333,251.197 197.705,251.207 194.913 C 251.225 189.863,253.155 185.013,255.540 184.025 C 257.075 183.389,257.413 181.430,257.371 173.400 C 257.334 166.540,256.927 165.169,254.400 163.401 C 252.131 161.814,251.762 161.035,250.827 155.848 C 249.935 150.903,249.932 150.898,248.051 150.113 C 245.471 149.038,244.447 148.075,244.192 146.483 C 243.661 143.175,243.747 143.287,241.357 142.791 C 239.431 142.391,238.778 141.992,236.722 139.955 C 235.406 138.651,233.760 137.295,233.065 136.941 C 232.369 136.588,231.230 135.737,230.532 135.049 C 229.835 134.362,228.600 133.190,227.787 132.444 C 225.782 130.603,226.261 127.309,229.027 123.925 C 229.886 122.874,230.505 120.119,231.589 112.523 C 232.711 104.664,230.906 90.000,228.817 90.000 C 226.870 90.000,224.768 88.673,222.804 86.205 C 221.146 84.122,220.507 83.621,219.027 83.249 C 216.891 82.711,203.565 82.709,201.705 83.246 " stroke="none" fill="#fcfcfc" fill-rule="evenodd"></path></g></svg>