<svg id="svg" version="1.1" xmlns="http://www.w3.org/2000/svg" xmlns:xlink="http://www.w3.org/1999/xlink" width="400" height="400" viewBox="0, 0, 400,400"><g id="svgg"><path id="path0" d="M100.665 63.202 C 96.213 63.638,96.619 61.262,96.458 87.820 L 96.316 111.200 95.338 111.200 C 93.829 111.200,92.158 112.244,91.687 113.481 C 91.023 115.224,90.736 117.514,91.150 117.769 C 91.356 117.897,91.423 118.389,91.299 118.863 C 91.132 119.505,91.208 119.642,91.599 119.401 C 91.931 119.196,92.027 119.233,91.861 119.502 C 91.210 120.554,92.930 122.232,94.171 121.756 C 94.689 121.557,94.623 121.376,93.792 120.722 C 90.762 118.339,91.059 113.928,94.362 112.219 C 95.884 111.433,96.935 111.431,95.600 112.217 L 94.600 112.807 95.627 112.578 L 96.655 112.350 96.602 116.075 C 96.526 121.399,96.493 121.598,95.700 121.614 C 95.315 121.622,94.550 121.902,94.000 122.237 L 93.000 122.846 94.063 122.625 C 94.647 122.503,95.385 122.304,95.701 122.182 C 96.164 122.005,96.348 122.728,96.639 125.874 C 97.044 130.266,96.797 129.994,101.000 130.676 L 103.000 131.000 103.202 133.533 C 103.445 136.599,104.068 137.200,106.996 137.200 C 109.548 137.200,109.998 137.646,110.006 140.180 C 110.015 143.009,110.316 143.317,113.268 143.511 C 116.356 143.715,116.800 144.180,116.800 147.212 C 116.800 149.749,117.491 150.400,120.186 150.400 C 123.056 150.400,122.800 145.502,122.800 200.443 L 122.800 250.000 120.544 250.000 C 118.881 250.000,118.137 250.184,117.714 250.700 C 117.369 251.122,117.258 251.161,117.434 250.800 C 117.604 250.454,117.577 250.339,117.370 250.528 C 117.173 250.708,116.984 251.428,116.951 252.128 C 116.418 263.283,116.447 263.184,113.726 263.194 C 110.614 263.205,110.001 263.681,109.995 266.090 C 109.985 269.836,109.862 269.999,107.053 270.006 C 102.941 270.016,102.828 270.557,102.811 290.454 L 102.800 302.707 93.500 302.910 C 88.385 303.021,83.660 303.297,83.000 303.522 C 82.340 303.747,82.102 303.947,82.471 303.966 C 82.975 303.991,83.209 304.530,83.408 306.129 C 83.909 310.139,83.875 310.183,80.136 310.316 L 76.872 310.431 76.596 314.116 C 76.071 321.124,76.518 342.378,77.200 342.809 C 77.530 343.017,79.105 343.191,80.700 343.194 L 83.600 343.200 83.600 345.474 C 83.600 347.258,83.413 347.948,82.732 348.673 C 81.607 349.870,81.690 349.924,85.433 350.414 C 88.913 350.870,327.747 350.787,332.400 350.329 C 337.678 349.808,337.334 351.420,337.375 327.000 C 337.416 302.191,337.857 303.788,330.800 303.189 C 330.470 303.161,325.850 303.048,320.532 302.937 L 310.865 302.737 310.732 287.210 C 310.579 269.228,310.823 270.284,306.721 269.855 C 303.753 269.545,304.056 269.851,303.741 266.836 C 303.418 263.753,303.057 263.378,300.088 263.042 L 297.724 262.774 297.460 256.687 C 297.311 253.243,297.024 250.542,296.799 250.467 C 296.579 250.393,296.379 249.583,296.354 248.667 L 296.308 247.000 296.016 248.504 C 295.856 249.332,295.647 250.087,295.551 250.182 C 295.190 250.543,290.978 250.789,290.498 250.477 C 290.100 250.218,290.018 239.848,290.098 199.975 L 290.200 149.800 292.963 149.799 C 295.261 149.798,295.758 149.916,295.910 150.499 C 296.264 151.854,297.200 151.276,297.203 149.700 C 297.205 148.875,297.320 147.262,297.457 146.116 L 297.708 144.033 299.554 143.783 C 303.123 143.299,303.331 143.091,303.798 139.517 L 304.044 137.635 306.480 137.359 C 309.262 137.044,310.400 136.200,310.400 134.450 C 310.400 131.225,310.671 130.877,313.423 130.583 C 316.631 130.239,317.108 129.716,317.441 126.180 L 317.703 123.400 319.903 123.334 C 323.232 123.233,323.383 122.952,323.369 116.895 C 323.291 81.327,323.065 72.896,322.273 76.051 C 321.923 77.446,321.896 110.308,322.245 110.872 C 322.408 111.137,322.345 111.213,322.092 111.057 C 321.855 110.911,321.287 111.317,320.829 111.960 C 320.354 112.626,319.696 113.082,319.298 113.021 C 318.914 112.962,318.505 113.058,318.389 113.236 C 317.089 115.225,316.609 97.787,317.163 68.701 C 317.237 64.788,316.876 63.749,315.288 63.305 C 313.463 62.794,271.184 62.954,269.800 63.478 C 269.081 63.749,268.881 63.945,269.300 63.966 C 269.807 63.991,270.012 64.359,270.042 65.300 C 270.066 66.015,270.111 67.410,270.142 68.400 L 270.200 70.200 267.100 70.226 C 264.239 70.249,263.997 70.187,263.959 69.426 C 263.885 67.934,263.250 71.310,262.966 74.707 L 262.689 78.014 253.080 77.907 L 243.471 77.800 242.966 76.400 C 242.688 75.630,242.433 75.270,242.400 75.600 C 242.181 77.753,241.614 79.656,241.256 79.435 C 240.662 79.067,241.044 80.765,241.726 81.518 C 242.097 81.929,242.311 82.385,242.201 82.532 C 242.090 82.680,242.125 82.705,242.278 82.588 C 242.731 82.244,242.761 81.217,242.316 81.312 C 241.780 81.427,241.626 80.410,242.027 79.400 C 242.295 78.722,242.348 78.707,242.372 79.300 C 242.388 79.702,242.698 79.987,243.100 79.968 C 243.518 79.950,243.599 79.856,243.300 79.735 C 241.539 79.024,243.844 78.800,252.900 78.801 L 263.000 78.802 263.109 81.008 L 263.219 83.213 252.542 83.107 L 241.864 83.000 240.932 81.237 C 240.419 80.267,240.000 79.734,240.000 80.052 C 240.000 80.370,239.640 80.657,239.200 80.690 C 238.760 80.723,238.400 80.571,238.400 80.352 C 238.400 80.132,238.235 80.055,238.032 80.180 C 237.237 80.671,236.690 77.515,237.002 74.234 C 237.694 66.959,237.205 63.841,235.288 63.305 C 233.608 62.834,179.619 62.971,178.200 63.449 L 177.000 63.854 176.647 70.327 C 176.296 76.742,176.285 76.800,175.359 76.800 C 174.690 76.800,174.491 76.972,174.657 77.405 C 174.823 77.837,174.706 77.939,174.245 77.762 C 173.837 77.605,173.600 77.725,173.600 78.088 C 173.600 78.498,173.943 78.611,174.800 78.485 C 175.460 78.388,176.003 78.105,176.006 77.855 C 176.009 77.605,176.187 77.670,176.400 78.000 C 176.613 78.330,176.791 79.680,176.794 81.000 L 176.800 83.400 163.700 83.310 C 156.495 83.260,150.453 83.215,150.273 83.210 C 149.963 83.200,150.122 80.711,150.542 79.000 C 150.650 78.560,150.753 78.078,150.769 77.929 C 150.786 77.780,151.115 77.576,151.500 77.476 C 152.078 77.325,152.088 77.285,151.556 77.246 C 150.899 77.199,150.889 77.122,150.252 67.754 C 149.981 63.766,149.472 63.379,144.200 63.149 C 139.125 62.927,103.018 62.971,100.665 63.202 M265.800 63.870 C 266.050 64.076,265.796 64.595,265.119 65.256 C 264.524 65.836,263.952 66.147,263.849 65.946 C 263.745 65.745,263.703 65.798,263.755 66.065 C 263.918 66.897,264.720 66.883,264.987 66.042 C 265.126 65.602,265.602 65.126,266.042 64.987 C 266.923 64.707,266.883 63.940,265.975 63.695 C 265.628 63.601,265.559 63.670,265.800 63.870 M238.400 71.173 C 238.400 71.382,238.608 71.681,238.862 71.838 C 239.148 72.015,239.215 71.948,239.038 71.662 C 238.870 71.390,239.004 71.200,239.364 71.200 C 239.765 71.200,239.898 71.441,239.750 71.900 C 239.558 72.495,239.591 72.510,239.970 72.000 C 240.435 71.375,240.532 71.456,242.606 74.181 C 243.136 74.879,243.200 74.888,243.200 74.269 C 243.200 73.887,242.933 73.473,242.607 73.347 C 242.157 73.175,242.113 72.936,242.424 72.354 C 242.733 71.778,242.707 71.615,242.317 71.694 C 242.033 71.752,241.829 71.620,241.865 71.400 C 241.900 71.180,241.135 70.953,240.165 70.896 C 239.194 70.839,238.400 70.964,238.400 71.173 M318.400 71.173 C 318.400 71.382,318.608 71.681,318.862 71.838 C 319.148 72.015,319.215 71.948,319.038 71.662 C 318.870 71.390,319.004 71.200,319.364 71.200 C 319.765 71.200,319.898 71.441,319.750 71.900 C 319.558 72.495,319.591 72.510,319.970 72.000 C 320.435 71.375,320.532 71.456,322.606 74.181 C 323.136 74.879,323.200 74.888,323.200 74.269 C 323.200 73.887,322.933 73.473,322.607 73.347 C 322.157 73.175,322.113 72.936,322.424 72.354 C 322.733 71.778,322.707 71.615,322.317 71.694 C 322.033 71.752,321.829 71.620,321.865 71.400 C 321.900 71.180,321.135 70.953,320.165 70.896 C 319.194 70.839,318.400 70.964,318.400 71.173 M322.800 93.400 C 322.800 102.750,322.665 110.400,322.500 110.400 C 322.335 110.400,322.249 102.750,322.308 93.400 C 322.368 84.050,322.503 76.400,322.608 76.400 C 322.714 76.400,322.800 84.050,322.800 93.400 M170.932 77.090 C 171.459 77.942,157.887 78.563,155.876 77.779 C 155.478 77.623,154.398 77.673,153.476 77.889 L 151.800 78.282 153.800 78.358 C 154.900 78.400,159.130 78.512,163.200 78.608 C 167.270 78.703,170.746 78.785,170.924 78.791 C 171.102 78.796,171.112 79.025,170.947 79.300 C 170.707 79.699,170.771 79.700,171.260 79.303 C 171.597 79.030,172.035 78.940,172.233 79.103 C 172.430 79.267,172.250 78.995,171.834 78.500 C 171.417 78.005,171.274 77.600,171.515 77.600 C 171.757 77.600,172.235 78.000,172.577 78.489 L 173.200 79.378 173.200 78.289 C 173.200 77.616,172.984 77.200,172.633 77.200 C 172.321 77.200,171.751 77.079,171.367 76.932 C 170.923 76.761,170.764 76.819,170.932 77.090 M131.680 78.816 C 134.504 79.600,135.884 81.843,136.209 86.178 C 136.539 90.590,136.469 90.454,139.000 91.562 C 140.100 92.043,141.657 92.891,142.461 93.446 L 143.922 94.455 163.461 94.327 L 183.000 94.200 185.671 92.086 C 188.429 89.904,188.498 89.775,189.035 85.871 C 189.360 83.504,191.274 80.537,193.200 79.416 C 195.123 78.295,215.594 77.942,219.569 78.961 C 224.850 80.313,226.574 82.221,226.975 87.156 C 227.211 90.048,228.306 92.147,230.164 93.265 C 232.533 94.691,268.888 94.983,271.603 93.599 C 272.467 93.158,274.068 92.605,275.161 92.371 C 277.906 91.782,278.164 91.329,278.428 86.624 C 278.841 79.263,279.697 78.652,289.868 78.469 C 299.514 78.294,304.853 79.798,306.378 83.119 C 307.018 84.512,306.919 102.442,306.256 105.259 C 305.196 109.761,302.445 112.936,298.719 113.956 C 295.208 114.917,115.700 114.377,114.042 113.400 C 110.446 111.282,109.624 107.602,109.610 93.560 L 109.600 83.320 110.787 81.681 C 112.050 79.938,113.062 79.239,115.000 78.771 C 116.867 78.321,130.024 78.356,131.680 78.816 M91.600 111.600 C 91.160 112.040,90.812 112.625,90.827 112.900 C 90.842 113.175,91.041 113.014,91.269 112.542 C 91.498 112.071,92.071 111.498,92.542 111.269 C 93.014 111.041,93.175 110.842,92.900 110.827 C 92.625 110.812,92.040 111.160,91.600 111.600 M93.436 113.560 C 92.919 114.132,92.869 114.396,93.236 114.622 C 93.528 114.803,93.621 114.757,93.466 114.507 C 93.146 113.989,94.153 113.098,94.601 113.503 C 94.781 113.667,94.799 113.575,94.641 113.300 C 94.270 112.656,94.250 112.660,93.436 113.560 M290.362 121.723 C 292.620 122.515,292.756 123.165,291.445 126.905 C 289.281 133.077,287.612 135.538,285.006 136.398 C 283.852 136.779,283.355 137.306,282.426 139.135 C 281.793 140.381,280.755 141.894,280.119 142.497 L 278.962 143.595 279.459 146.897 C 280.283 152.368,280.211 242.319,279.381 244.313 C 278.719 245.904,275.741 249.200,274.966 249.200 C 273.929 249.200,273.349 250.484,274.171 250.958 C 277.368 252.804,280.788 257.867,281.808 262.266 C 282.933 267.118,283.179 267.854,283.997 268.796 C 285.489 270.517,283.634 272.565,279.462 273.804 C 276.768 274.604,137.746 274.715,135.090 273.920 C 132.416 273.119,130.637 271.130,130.960 269.303 C 131.107 268.476,131.474 266.332,131.777 264.537 C 132.469 260.435,133.377 258.505,135.089 257.494 C 135.829 257.058,136.794 255.995,137.235 255.132 C 137.675 254.270,138.679 252.851,139.466 251.980 L 140.897 250.395 139.310 248.672 C 136.229 245.331,136.408 248.618,136.298 193.400 L 136.200 144.200 134.400 142.393 C 133.284 141.274,132.339 139.829,131.914 138.593 C 131.301 136.811,130.988 136.475,128.955 135.420 C 126.345 134.065,124.665 131.819,124.231 129.103 C 124.081 128.166,123.518 126.648,122.979 125.729 C 121.291 122.848,121.830 122.035,125.716 121.592 C 130.351 121.064,288.842 121.190,290.362 121.723 M295.841 151.934 C 295.727 152.118,295.791 152.793,295.983 153.434 C 296.329 154.593,296.331 154.590,296.366 153.100 C 296.400 151.621,296.246 151.279,295.841 151.934 M295.800 200.600 C 295.800 236.333,295.903 245.600,296.300 245.600 C 296.697 245.600,296.800 236.333,296.800 200.600 C 296.800 164.867,296.697 155.600,296.300 155.600 C 295.903 155.600,295.800 164.867,295.800 200.600 M290.777 284.393 C 292.298 284.830,294.563 286.817,295.434 288.480 C 295.862 289.297,296.000 291.351,296.000 296.921 C 296.000 305.033,295.811 305.733,293.071 307.763 L 291.941 308.600 207.271 308.600 C 123.941 308.600,122.580 308.588,121.306 307.818 C 118.911 306.368,118.600 305.104,118.600 296.800 C 118.600 286.376,119.498 284.825,125.799 284.368 C 131.599 283.947,289.305 283.971,290.777 284.393 M79.362 303.938 C 79.519 304.192,79.500 304.400,79.320 304.400 C 79.140 304.400,78.756 304.778,78.468 305.240 C 77.946 306.076,77.949 306.076,78.959 305.340 C 80.093 304.514,80.216 304.181,79.538 303.762 C 79.252 303.585,79.185 303.652,79.362 303.938 M77.206 309.100 C 77.211 309.901,77.309 310.047,77.569 309.636 C 77.765 309.326,77.833 308.831,77.720 308.536 C 77.396 307.690,77.199 307.906,77.206 309.100 M319.737 319.322 C 324.125 322.197,323.506 332.327,318.797 334.708 L 317.000 335.617 207.000 335.508 L 97.000 335.400 95.183 334.495 C 89.782 331.805,90.277 320.656,95.874 318.929 C 98.788 318.030,318.353 318.415,319.737 319.322 M77.212 344.620 C 77.223 345.654,77.277 345.709,77.654 345.061 C 77.961 344.532,77.958 344.198,77.641 343.881 C 77.320 343.560,77.203 343.759,77.212 344.620 M77.798 346.404 C 77.471 346.932,77.944 348.400,78.441 348.400 C 78.676 348.400,78.658 348.081,78.396 347.592 C 78.158 347.147,78.072 346.607,78.205 346.392 C 78.338 346.176,78.357 346.000,78.247 346.000 C 78.137 346.000,77.935 346.182,77.798 346.404 " stroke="none" fill="#1a1b1a" fill-rule="evenodd"></path><path id="path1" d="M115.818 80.636 C 112.298 81.925,112.400 81.536,112.400 93.628 C 112.400 107.372,113.093 110.121,116.926 111.573 C 117.711 111.871,145.065 112.000,207.332 112.000 C 309.593 112.000,298.335 112.486,300.800 107.966 L 302.200 105.400 302.324 94.458 C 302.465 82.007,302.623 82.649,299.000 80.947 C 297.341 80.168,296.386 80.013,293.400 80.039 C 281.506 80.141,280.719 80.547,280.393 86.753 C 280.151 91.348,279.220 93.176,276.295 94.799 C 275.363 95.317,273.702 96.338,272.605 97.070 L 270.611 98.400 252.805 98.366 C 231.148 98.325,230.665 98.281,229.020 96.189 C 228.349 95.336,226.745 93.623,225.456 92.383 L 223.112 90.129 222.779 86.821 C 222.160 80.681,220.641 80.009,207.371 80.004 C 193.530 79.998,192.489 80.459,192.042 86.783 L 191.786 90.406 187.831 94.103 C 182.796 98.811,185.552 98.340,162.870 98.372 L 143.141 98.400 140.870 96.269 C 139.622 95.097,137.928 93.735,137.107 93.241 C 134.511 91.680,134.000 90.693,134.000 87.240 C 134.000 83.621,133.222 81.829,131.175 80.731 C 129.389 79.773,118.360 79.705,115.818 80.636 M131.186 83.174 C 131.414 83.599,131.608 85.534,131.618 87.474 C 131.644 92.758,132.690 95.046,135.679 96.353 C 136.493 96.709,137.574 97.630,138.082 98.400 C 138.591 99.170,139.815 100.209,140.803 100.709 L 142.600 101.618 163.600 101.509 C 187.145 101.387,186.614 101.452,188.306 98.489 C 188.773 97.670,190.111 96.277,191.278 95.392 C 194.251 93.140,195.200 91.121,195.200 87.047 C 195.200 82.133,194.523 82.400,206.986 82.400 C 219.560 82.400,218.754 82.087,219.079 87.100 C 219.347 91.242,220.011 92.758,222.104 94.002 C 222.817 94.426,224.030 95.611,224.800 96.636 C 228.748 101.891,227.172 101.595,251.258 101.598 C 274.773 101.600,274.492 101.640,278.637 97.703 C 281.606 94.882,282.337 92.989,282.727 87.116 L 283.000 83.000 284.800 82.730 C 287.675 82.298,297.175 82.358,298.026 82.814 C 299.852 83.791,299.009 105.133,297.081 106.733 C 296.652 107.089,274.943 107.178,206.758 107.101 L 117.000 107.000 116.116 105.200 C 114.918 102.758,114.706 84.409,115.862 83.131 C 116.902 81.982,130.568 82.020,131.186 83.174 M133.574 125.195 C 126.562 125.884,124.915 130.578,130.649 133.531 C 131.502 133.970,133.327 135.495,134.704 136.920 L 137.207 139.511 141.104 139.988 C 146.611 140.661,275.428 140.418,276.600 139.731 C 277.040 139.474,278.420 138.269,279.668 137.055 C 280.915 135.840,282.832 134.392,283.928 133.836 C 288.334 131.604,288.742 128.344,284.915 125.948 L 283.400 125.000 210.000 124.948 C 169.630 124.920,135.238 125.031,133.574 125.195 M283.321 128.951 C 284.443 129.497,284.011 130.923,282.600 131.331 C 281.940 131.522,280.500 132.066,279.400 132.539 L 277.400 133.400 207.688 133.502 L 137.976 133.604 135.459 132.428 C 134.075 131.781,132.459 131.130,131.867 130.981 C 129.393 130.360,129.901 129.728,133.449 129.017 C 136.653 128.374,282.005 128.310,283.321 128.951 M142.369 145.710 C 141.626 146.210,140.610 147.226,140.110 147.969 L 139.200 149.318 139.200 196.475 C 139.200 249.194,138.999 245.463,141.953 247.566 L 143.123 248.400 206.782 248.400 C 277.712 248.400,271.334 248.680,274.321 245.440 L 276.000 243.618 276.000 196.610 L 276.000 149.602 274.527 147.972 C 271.371 144.479,278.223 144.800,206.875 144.800 L 143.718 144.800 142.369 145.710 M271.074 149.270 L 272.000 150.139 272.000 196.744 L 272.000 243.348 271.130 244.274 L 270.261 245.200 206.753 245.200 L 143.245 245.200 142.623 244.311 C 141.639 242.907,141.678 150.219,142.662 149.131 C 143.298 148.429,145.811 148.400,206.736 148.400 L 270.148 148.400 271.074 149.270 M142.330 254.450 C 141.391 255.711,139.212 257.936,136.113 260.797 C 134.073 262.682,133.825 263.538,134.192 267.450 L 134.476 270.478 136.203 271.243 C 137.885 271.987,139.772 272.004,207.736 271.903 L 277.541 271.800 278.671 270.958 C 281.779 268.641,279.951 260.007,275.921 257.966 C 274.974 257.487,273.355 256.218,272.323 255.147 L 270.445 253.200 206.853 253.200 L 143.261 253.200 142.330 254.450 M272.064 260.800 C 273.459 261.460,274.992 262.000,275.471 262.000 C 277.308 262.000,278.145 264.374,276.796 265.756 C 275.266 267.322,145.366 268.116,141.693 266.581 C 138.577 265.279,137.647 263.612,139.500 262.649 C 140.105 262.335,141.300 261.520,142.155 260.839 L 143.710 259.600 206.619 259.600 L 269.528 259.600 272.064 260.800 M126.200 286.682 C 121.036 286.964,120.400 288.080,120.400 296.854 C 120.400 304.141,120.984 305.988,123.511 306.695 C 124.110 306.863,162.009 307.000,207.731 307.000 L 290.861 307.000 292.231 305.506 L 293.600 304.012 293.600 296.759 L 293.600 289.506 292.047 287.953 L 290.494 286.400 209.547 286.476 C 165.026 286.517,127.520 286.610,126.200 286.682 M290.800 289.600 C 291.710 290.510,292.027 302.054,291.186 303.626 C 290.763 304.417,129.965 304.846,124.800 304.070 L 123.000 303.800 122.890 297.030 C 122.823 292.931,122.937 290.103,123.177 289.863 C 124.536 288.504,289.445 288.245,290.800 289.600 M99.400 320.366 C 94.635 320.768,93.600 321.916,93.600 326.800 C 93.600 330.571,93.853 331.195,95.895 332.464 L 97.400 333.400 206.400 333.517 C 266.350 333.582,315.978 333.530,316.684 333.402 C 321.599 332.512,322.158 322.209,317.389 320.396 C 316.264 319.968,104.456 319.939,99.400 320.366 M317.986 323.174 C 318.214 323.599,318.400 325.231,318.400 326.800 C 318.400 328.369,318.214 330.001,317.986 330.426 C 317.559 331.224,102.645 331.658,98.200 330.870 L 96.600 330.586 96.600 326.793 L 96.600 323.000 98.000 322.753 C 102.330 321.988,317.572 322.400,317.986 323.174 " stroke="none" fill="#a4a4a4" fill-rule="evenodd"></path><path id="path2" d="M265.800 63.870 C 264.069 64.337,263.313 66.262,263.813 68.926 L 264.061 70.252 267.131 70.226 L 270.200 70.200 270.075 67.209 C 270.007 65.563,269.887 64.153,269.808 64.075 C 269.538 63.805,266.598 63.655,265.800 63.870 M266.493 64.690 C 265.842 64.923,264.923 65.842,264.690 66.493 C 264.591 66.772,264.373 66.873,264.206 66.718 C 264.039 66.563,264.473 65.866,265.169 65.169 C 265.866 64.473,266.563 64.039,266.718 64.206 C 266.873 64.373,266.772 64.591,266.493 64.690 M237.384 70.826 C 236.377 72.455,236.958 80.844,238.032 80.180 C 238.235 80.055,238.400 80.132,238.400 80.352 C 238.400 80.571,238.760 80.723,239.200 80.690 C 239.640 80.657,240.000 80.370,240.000 80.052 C 240.000 79.734,240.419 80.267,240.932 81.237 L 241.864 83.000 252.542 83.107 L 263.219 83.213 263.109 81.008 L 263.000 78.802 252.900 78.801 C 243.844 78.800,241.539 79.024,243.300 79.735 C 243.599 79.856,243.518 79.950,243.100 79.968 C 242.698 79.987,242.388 79.702,242.372 79.300 C 242.348 78.707,242.295 78.722,242.027 79.400 C 241.626 80.410,241.780 81.427,242.316 81.312 C 242.761 81.217,242.731 82.244,242.278 82.588 C 242.125 82.705,242.090 82.680,242.201 82.532 C 242.311 82.385,242.097 81.929,241.726 81.518 C 241.055 80.777,240.657 79.065,241.239 79.424 C 241.577 79.633,241.856 78.881,242.207 76.812 C 242.336 76.049,242.549 75.329,242.680 75.212 C 242.811 75.095,242.818 75.405,242.696 75.901 C 242.574 76.396,242.638 76.700,242.837 76.577 C 243.386 76.238,243.272 75.058,242.606 74.181 C 240.532 71.456,240.435 71.375,239.970 72.000 C 239.591 72.510,239.558 72.495,239.750 71.900 C 239.898 71.441,239.765 71.200,239.364 71.200 C 238.991 71.200,238.863 71.395,239.035 71.700 C 239.259 72.097,239.208 72.098,238.785 71.707 C 237.995 70.974,238.578 70.669,240.192 70.972 C 241.089 71.140,241.520 71.405,241.349 71.682 C 241.173 71.967,241.262 72.009,241.600 71.800 C 241.969 71.572,242.028 71.631,241.800 72.000 C 241.571 72.370,241.631 72.428,242.006 72.196 C 242.391 71.958,242.466 72.051,242.281 72.534 C 242.140 72.900,242.199 73.200,242.413 73.200 C 242.868 73.200,242.914 72.389,242.494 71.760 C 241.682 70.545,237.977 69.867,237.384 70.826 M317.287 71.100 C 316.062 74.083,317.136 115.153,318.389 113.236 C 318.505 113.058,318.914 112.962,319.298 113.021 C 319.696 113.082,320.354 112.626,320.829 111.960 C 321.287 111.317,321.855 110.911,322.092 111.057 C 322.345 111.213,322.408 111.137,322.245 110.873 C 321.874 110.272,321.934 77.048,322.308 76.034 C 322.570 75.325,322.565 88.417,322.298 104.501 C 322.244 107.746,322.335 110.401,322.500 110.401 C 322.665 110.400,322.800 102.953,322.800 93.850 C 322.800 84.748,322.901 76.782,323.024 76.150 C 323.245 75.018,323.159 74.839,321.214 72.400 C 320.528 71.541,320.353 71.484,319.970 72.000 C 319.591 72.510,319.558 72.495,319.750 71.900 C 319.898 71.441,319.765 71.200,319.364 71.200 C 318.991 71.200,318.863 71.395,319.035 71.700 C 319.259 72.097,319.208 72.098,318.785 71.707 C 317.995 70.974,318.578 70.669,320.192 70.972 C 321.089 71.140,321.520 71.405,321.349 71.682 C 321.173 71.967,321.262 72.009,321.600 71.800 C 321.969 71.572,322.028 71.631,321.800 72.000 C 321.571 72.370,321.631 72.428,322.006 72.196 C 322.391 71.958,322.466 72.051,322.281 72.534 C 322.140 72.900,322.199 73.200,322.413 73.200 C 322.868 73.200,322.914 72.389,322.494 71.760 C 321.548 70.343,317.794 69.867,317.287 71.100 M151.400 77.165 C 152.091 77.492,152.104 77.548,151.500 77.572 C 151.115 77.587,150.786 77.735,150.769 77.900 C 150.753 78.065,150.650 78.560,150.542 79.000 C 150.122 80.711,149.963 83.200,150.273 83.210 C 150.453 83.215,156.495 83.260,163.700 83.310 L 176.800 83.400 176.794 81.000 C 176.791 79.680,176.613 78.330,176.400 78.000 C 176.187 77.670,176.009 77.605,176.006 77.855 C 176.003 78.105,175.460 78.388,174.800 78.485 C 173.943 78.611,173.600 78.498,173.600 78.088 C 173.600 77.729,173.837 77.605,174.233 77.757 C 174.635 77.912,174.807 77.817,174.703 77.500 C 174.612 77.225,173.832 76.973,172.969 76.939 C 172.106 76.906,171.805 76.964,172.300 77.067 C 172.929 77.199,173.200 77.543,173.200 78.210 L 173.200 79.164 172.218 78.182 L 171.236 77.200 162.518 77.196 C 157.723 77.193,153.080 77.100,152.200 76.988 C 151.004 76.837,150.802 76.881,151.400 77.165 M243.000 77.506 C 242.193 78.099,242.334 78.864,243.168 78.417 C 243.646 78.161,247.596 78.000,253.374 78.000 C 259.391 78.000,262.800 77.855,262.800 77.600 C 262.800 77.133,243.632 77.042,243.000 77.506 M156.137 77.900 C 156.239 78.065,159.624 78.110,163.661 78.000 C 170.256 77.820,171.072 77.870,171.706 78.494 C 172.094 78.876,172.290 79.103,172.142 78.998 C 171.995 78.893,171.597 79.030,171.260 79.303 C 170.771 79.700,170.707 79.699,170.947 79.300 C 171.112 79.025,171.102 78.796,170.924 78.791 C 170.746 78.785,167.270 78.703,163.200 78.608 C 151.546 78.335,151.659 78.341,152.800 77.989 C 154.137 77.576,155.909 77.529,156.137 77.900 M115.000 78.771 C 113.062 79.239,112.050 79.938,110.787 81.681 L 109.600 83.320 109.610 93.560 C 109.624 107.602,110.446 111.282,114.042 113.400 C 115.700 114.377,295.208 114.917,298.719 113.956 C 302.445 112.936,305.196 109.761,306.256 105.259 C 306.919 102.442,307.018 84.512,306.378 83.119 C 304.853 79.798,299.514 78.294,289.868 78.469 C 279.697 78.652,278.841 79.263,278.428 86.624 C 278.164 91.329,277.906 91.782,275.161 92.371 C 274.068 92.605,272.467 93.158,271.603 93.599 C 268.888 94.983,232.533 94.691,230.164 93.265 C 228.306 92.147,227.211 90.048,226.975 87.156 C 226.574 82.221,224.850 80.313,219.569 78.961 C 215.594 77.942,195.123 78.295,193.200 79.416 C 191.274 80.537,189.360 83.504,189.035 85.871 C 188.498 89.775,188.429 89.904,185.671 92.086 L 183.000 94.200 163.461 94.327 L 143.922 94.455 142.461 93.446 C 141.657 92.891,140.100 92.043,139.000 91.562 C 136.469 90.454,136.539 90.590,136.209 86.178 C 135.884 81.843,134.504 79.600,131.680 78.816 C 130.024 78.356,116.867 78.321,115.000 78.771 M131.175 80.731 C 133.222 81.829,134.000 83.621,134.000 87.240 C 134.000 90.693,134.511 91.680,137.107 93.241 C 137.928 93.735,139.622 95.097,140.870 96.269 L 143.141 98.400 162.870 98.372 C 185.552 98.340,182.796 98.811,187.831 94.103 L 191.786 90.406 192.042 86.783 C 192.489 80.459,193.530 79.998,207.371 80.004 C 220.641 80.009,222.160 80.681,222.779 86.821 L 223.112 90.129 225.456 92.383 C 226.745 93.623,228.349 95.336,229.020 96.189 C 230.665 98.281,231.148 98.325,252.805 98.366 L 270.611 98.400 272.605 97.070 C 273.702 96.338,275.363 95.317,276.295 94.799 C 279.220 93.176,280.151 91.348,280.393 86.753 C 280.719 80.547,281.506 80.141,293.400 80.039 C 296.386 80.013,297.341 80.168,299.000 80.947 C 302.623 82.649,302.465 82.007,302.324 94.458 L 302.200 105.400 300.800 107.966 C 298.335 112.486,309.593 112.000,207.332 112.000 C 114.454 112.000,116.756 112.042,114.892 110.296 C 112.270 107.839,110.956 84.296,113.318 82.077 C 115.604 79.929,127.945 78.999,131.175 80.731 M94.600 110.669 C 91.061 111.448,89.802 114.193,90.794 118.970 C 91.407 121.926,92.389 122.657,94.754 121.919 C 96.605 121.341,96.523 121.602,96.602 116.075 L 96.655 112.350 95.627 112.578 L 94.600 112.807 95.600 112.217 C 96.204 111.862,96.362 111.623,96.000 111.616 C 91.832 111.528,90.274 117.955,93.792 120.722 C 94.651 121.398,94.703 121.552,94.142 121.767 C 93.781 121.905,93.391 121.925,93.276 121.809 C 93.161 121.694,93.317 121.600,93.622 121.600 C 93.931 121.600,93.738 121.290,93.189 120.903 C 92.645 120.520,92.043 120.257,91.851 120.319 C 91.659 120.382,91.612 120.146,91.746 119.796 C 91.906 119.379,91.832 119.257,91.532 119.442 C 91.221 119.634,91.146 119.449,91.299 118.863 C 91.423 118.389,91.356 117.897,91.150 117.769 C 90.736 117.514,91.023 115.224,91.687 113.481 C 92.162 112.232,93.833 111.200,95.380 111.200 C 95.941 111.200,96.400 111.020,96.400 110.800 C 96.400 110.390,96.000 110.361,94.600 110.669 M94.641 113.300 C 94.799 113.575,94.781 113.667,94.601 113.503 C 94.153 113.098,93.146 113.989,93.466 114.507 C 93.621 114.757,93.528 114.803,93.236 114.622 C 92.869 114.396,92.919 114.132,93.436 113.560 C 94.250 112.660,94.270 112.656,94.641 113.300 M125.716 121.592 C 121.830 122.035,121.291 122.848,122.979 125.729 C 123.518 126.648,124.081 128.166,124.231 129.103 C 124.665 131.819,126.345 134.065,128.955 135.420 C 130.988 136.475,131.301 136.811,131.914 138.593 C 132.339 139.829,133.284 141.274,134.400 142.393 L 136.200 144.200 136.298 193.400 C 136.408 248.618,136.229 245.331,139.310 248.672 L 140.897 250.395 139.466 251.980 C 138.679 252.851,137.675 254.270,137.235 255.132 C 136.794 255.995,135.829 257.058,135.089 257.494 C 133.377 258.505,132.469 260.435,131.777 264.537 C 131.474 266.332,131.107 268.476,130.960 269.303 C 130.637 271.130,132.416 273.119,135.090 273.920 C 137.746 274.715,276.768 274.604,279.462 273.804 C 283.634 272.565,285.489 270.517,283.997 268.796 C 283.179 267.854,282.933 267.118,281.808 262.266 C 280.788 257.867,277.368 252.804,274.171 250.958 C 273.349 250.484,273.929 249.200,274.966 249.200 C 275.741 249.200,278.719 245.904,279.381 244.313 C 280.211 242.319,280.283 152.368,279.459 146.897 L 278.962 143.595 280.119 142.497 C 280.755 141.894,281.793 140.381,282.426 139.135 C 283.355 137.306,283.852 136.779,285.006 136.398 C 287.612 135.538,289.281 133.077,291.445 126.905 C 292.756 123.165,292.620 122.515,290.362 121.723 C 288.842 121.190,130.351 121.064,125.716 121.592 M95.000 122.400 C 94.291 122.705,94.325 122.747,95.300 122.772 C 95.905 122.787,96.400 122.620,96.400 122.400 C 96.400 121.931,96.093 121.931,95.000 122.400 M284.915 125.948 C 288.742 128.344,288.334 131.604,283.928 133.836 C 282.832 134.392,280.915 135.840,279.668 137.055 C 278.420 138.269,277.040 139.474,276.600 139.731 C 275.428 140.418,146.611 140.661,141.104 139.988 L 137.207 139.511 134.704 136.920 C 133.327 135.495,131.502 133.970,130.649 133.531 C 127.372 131.843,126.554 130.065,127.980 127.726 C 129.791 124.755,125.836 124.889,210.000 124.948 L 283.400 125.000 284.915 125.948 M271.543 145.571 C 272.374 145.995,273.717 147.076,274.527 147.972 L 276.000 149.602 276.000 196.610 L 276.000 243.618 274.321 245.440 C 271.334 248.680,277.712 248.400,206.782 248.400 L 143.123 248.400 141.953 247.566 C 138.999 245.463,139.200 249.194,139.200 196.475 L 139.200 149.318 140.110 147.969 C 140.610 147.226,141.626 146.210,142.369 145.710 L 143.718 144.800 206.875 144.800 C 268.452 144.800,270.070 144.819,271.543 145.571 M290.294 149.839 C 289.543 150.590,289.965 250.335,290.719 250.574 C 293.283 251.388,295.943 250.204,296.054 248.200 C 296.106 247.265,296.182 247.398,296.400 248.800 C 296.677 250.582,296.680 250.575,296.740 248.100 C 296.782 246.335,296.653 245.600,296.300 245.600 C 295.903 245.600,295.800 236.333,295.800 200.600 C 295.800 164.867,295.903 155.600,296.300 155.600 C 296.639 155.600,296.800 154.893,296.800 153.400 C 296.800 152.190,296.633 151.200,296.429 151.200 C 296.225 151.200,296.000 150.901,295.929 150.535 C 295.792 149.829,290.908 149.226,290.294 149.839 M296.366 153.100 C 296.331 154.590,296.329 154.593,295.983 153.434 C 295.666 152.375,295.768 151.600,296.224 151.600 C 296.321 151.600,296.385 152.275,296.366 153.100 M272.323 255.147 C 273.355 256.218,274.974 257.487,275.921 257.966 C 279.951 260.007,281.779 268.641,278.671 270.958 L 277.541 271.800 207.736 271.903 C 139.772 272.004,137.885 271.987,136.203 271.243 L 134.476 270.478 134.192 267.450 C 133.825 263.538,134.073 262.682,136.113 260.797 C 139.212 257.936,141.391 255.711,142.330 254.450 L 143.261 253.200 206.853 253.200 L 270.445 253.200 272.323 255.147 M125.799 284.368 C 119.498 284.825,118.600 286.376,118.600 296.800 C 118.600 305.104,118.911 306.368,121.306 307.818 C 122.580 308.588,123.941 308.600,207.271 308.600 L 291.941 308.600 293.071 307.763 C 295.811 305.733,296.000 305.033,296.000 296.921 C 296.000 291.351,295.862 289.297,295.434 288.480 C 294.563 286.817,292.298 284.830,290.777 284.393 C 289.305 283.971,131.599 283.947,125.799 284.368 M292.047 287.953 L 293.600 289.506 293.600 296.759 L 293.600 304.012 292.231 305.506 L 290.861 307.000 207.731 307.000 C 162.009 307.000,124.110 306.863,123.511 306.695 C 119.324 305.523,118.804 289.373,122.886 287.282 C 124.310 286.552,123.964 286.556,209.547 286.476 L 290.494 286.400 292.047 287.953 M78.734 304.033 C 77.462 304.523,77.327 304.825,76.969 307.990 L 76.693 310.434 80.046 310.317 L 83.400 310.200 83.344 307.277 C 83.313 305.670,83.193 304.260,83.077 304.144 C 82.644 303.711,79.762 303.637,78.734 304.033 M79.987 304.300 C 79.981 304.465,79.486 304.952,78.887 305.381 C 77.809 306.157,77.805 306.157,78.400 305.381 C 79.289 304.223,80.011 303.732,79.987 304.300 M77.720 308.536 C 77.833 308.831,77.765 309.326,77.569 309.636 C 77.309 310.047,77.211 309.901,77.206 309.100 C 77.199 307.906,77.396 307.690,77.720 308.536 M95.874 318.929 C 90.277 320.656,89.782 331.805,95.183 334.495 L 97.000 335.400 207.000 335.508 L 317.000 335.617 318.797 334.708 C 323.506 332.327,324.125 322.197,319.737 319.322 C 318.353 318.415,98.788 318.030,95.874 318.929 M317.389 320.396 C 322.158 322.209,321.599 332.512,316.684 333.402 C 315.978 333.530,266.350 333.582,206.400 333.517 L 97.400 333.400 95.895 332.464 C 93.853 331.195,93.600 330.571,93.600 326.800 C 93.600 321.916,94.635 320.768,99.400 320.366 C 104.456 319.939,316.264 319.968,317.389 320.396 M76.810 344.057 C 76.837 347.868,77.653 349.245,80.026 349.483 C 82.558 349.736,83.600 348.584,83.600 345.530 L 83.600 343.200 80.833 343.200 C 79.311 343.200,77.781 343.091,77.433 342.957 C 76.932 342.765,76.802 342.995,76.810 344.057 M77.654 345.061 C 77.277 345.709,77.223 345.654,77.212 344.620 C 77.203 343.759,77.320 343.560,77.641 343.881 C 77.958 344.198,77.961 344.532,77.654 345.061 M78.205 346.392 C 78.072 346.607,78.158 347.147,78.396 347.592 C 78.658 348.081,78.676 348.400,78.441 348.400 C 77.944 348.400,77.471 346.932,77.798 346.404 C 77.935 346.182,78.137 346.000,78.247 346.000 C 78.357 346.000,78.338 346.176,78.205 346.392 " stroke="none" fill="#565656" fill-rule="evenodd"></path><path id="path3" d="M115.862 83.131 C 114.706 84.409,114.918 102.758,116.116 105.200 L 117.000 107.000 206.758 107.101 C 274.943 107.178,296.652 107.089,297.081 106.733 C 299.009 105.133,299.852 83.791,298.026 82.814 C 297.175 82.358,287.675 82.298,284.800 82.730 L 283.000 83.000 282.727 87.116 C 282.337 92.989,281.606 94.882,278.637 97.703 C 274.492 101.640,274.773 101.600,251.258 101.598 C 227.172 101.595,228.748 101.891,224.800 96.636 C 224.030 95.611,222.817 94.426,222.104 94.002 C 220.011 92.758,219.347 91.242,219.079 87.100 C 218.754 82.087,219.560 82.400,206.986 82.400 C 194.523 82.400,195.200 82.133,195.200 87.047 C 195.200 91.121,194.251 93.140,191.278 95.392 C 190.111 96.277,188.773 97.670,188.306 98.489 C 186.614 101.452,187.145 101.387,163.600 101.509 L 142.600 101.618 140.803 100.709 C 139.815 100.209,138.591 99.170,138.082 98.400 C 137.574 97.630,136.493 96.709,135.679 96.353 C 132.690 95.046,131.644 92.758,131.618 87.474 C 131.591 82.108,132.049 82.400,123.648 82.400 C 117.254 82.400,116.456 82.475,115.862 83.131 M133.449 129.017 C 129.901 129.728,129.393 130.360,131.867 130.981 C 132.459 131.130,134.075 131.781,135.459 132.428 L 137.976 133.604 207.688 133.502 L 277.400 133.400 279.400 132.539 C 280.500 132.066,281.940 131.522,282.600 131.331 C 284.011 130.923,284.443 129.497,283.321 128.951 C 282.005 128.310,136.653 128.374,133.449 129.017 M142.662 149.131 C 141.678 150.219,141.639 242.907,142.623 244.311 L 143.245 245.200 206.753 245.200 L 270.261 245.200 271.130 244.274 L 272.000 243.348 272.000 196.744 L 272.000 150.139 271.074 149.270 L 270.148 148.400 206.736 148.400 C 145.811 148.400,143.298 148.429,142.662 149.131 M142.155 260.839 C 141.300 261.520,140.105 262.335,139.500 262.649 C 137.647 263.612,138.577 265.279,141.693 266.581 C 145.366 268.116,275.266 267.322,276.796 265.756 C 278.145 264.374,277.308 262.000,275.471 262.000 C 274.992 262.000,273.459 261.460,272.064 260.800 L 269.528 259.600 206.619 259.600 L 143.710 259.600 142.155 260.839 M126.287 289.190 C 122.633 289.562,122.764 289.259,122.890 297.030 L 123.000 303.800 124.800 304.070 C 129.965 304.846,290.763 304.417,291.186 303.626 C 292.027 302.054,291.710 290.510,290.800 289.600 C 289.980 288.780,134.123 288.392,126.287 289.190 M98.000 322.753 L 96.600 323.000 96.600 326.793 L 96.600 330.586 98.200 330.870 C 102.645 331.658,317.559 331.224,317.986 330.426 C 318.214 330.001,318.400 328.369,318.400 326.800 C 318.400 325.231,318.214 323.599,317.986 323.174 C 317.572 322.400,102.330 321.988,98.000 322.753 " stroke="none" fill="#fcfcfc" fill-rule="evenodd"></path></g></svg>